<svg xmlns="http://www.w3.org/2000/svg" width="202" height="202"><g fill="none" fill-rule="evenodd"><circle cx="101" cy="101" r="101" opacity=".203" transform="matrix(0 -1 -1 0 202 202)"/><g fill-rule="nonzero" transform="translate(1 37)"><path fill="#fff" d="M172.225 2.485a8.1 8.1 0 0 0-2.937.398c-1.4.621-2.763 3.896-3.734 9.035a62.8 62.8 0 0 0-1.089 13.508 2.53 2.53 0 0 0 1.12 2.02c4.356 3.106 19.136-.69 20.704-1.107.747-1.429 7.555-14.807 4.2-18.404-2.95-3.188-12.844-5.45-18.264-5.45"/><path fill="#231f20" d="M171.391 29.272c-2.557 0-4.822-.354-6.179-1.336a3.14 3.14 0 0 1-1.388-2.485c-.367-7.01 1.581-21.611 5.209-23.164s18.046 1.056 21.93 5.207c3.883 4.15-3.84 18.64-4.17 19.262a.32.32 0 0 1-.199.161c-.48.112-8.774 2.355-15.203 2.355m.834-26.787a8.1 8.1 0 0 0-2.937.398c-1.4.621-2.763 3.896-3.734 9.035a62.8 62.8 0 0 0-1.089 13.508 2.53 2.53 0 0 0 1.12 2.02c4.356 3.106 19.136-.69 20.704-1.107.747-1.429 7.555-14.807 4.2-18.404-2.95-3.188-12.844-5.45-18.264-5.45"/><path fill="#fff" d="M130.438 110.086a30.77 30.77 0 0 0 18.29-25.755l-10.3-11.048-14.156 27.296"/><path fill="#231f20" d="M130.438 110.41a.324.324 0 0 1-.112-.622 30.69 30.69 0 0 0 18.078-25.345L138.51 73.83l-13.946 26.892a.324.324 0 0 1-.573-.292l14.158-27.296a.31.31 0 0 1 .242-.168.32.32 0 0 1 .28.093l10.3 11.054a.33.33 0 0 1 .086.249 31.34 31.34 0 0 1-18.507 26.022.24.24 0 0 1-.112.025Z"/><path fill="#231f20" d="m162.362 126.962 31.152-.602-.43-39.17-45.744 1.646-6.366 38.126Z"/><path fill="#231f20" d="M162.362 127.273h-21.388a.3.3 0 0 1-.237-.112.29.29 0 0 1-.068-.248l6.366-38.127a.305.305 0 0 1 .292-.261l45.745-1.647a.34.34 0 0 1 .224.087.3.3 0 0 1 .1.224l.429 39.146a.31.31 0 0 1-.305.317l-31.152.621Zm-21.021-.621h21.02l30.842-.622-.423-38.524-45.179 1.628Z"/><path fill="#e7816b" d="M199.519 43.731c-2.788-3.784-9.459-5.778-13.952-6.493-4.325-.683-8.656 0-13-.373a38.3 38.3 0 0 0-11.823 1.156c-14.493 4.002-27.966 24.954-27.966 24.954l14.773.776s-2.146 15.429-8.307 49.237c25.663.913 55.533 3.46 55.533 3.46s.13-7.076.454-14.042c2.315-2.156 2.234-5.592 2.658-7.587.547-2.566-.56-30.446-.56-30.446l3.366-1.243s.044-17.77-1.176-19.399"/><path fill="#231f20" d="m165 43.34-11.257 73.935 13.442 1.349 15.29-75.44Z"/><path fill="#231f20" d="M167.185 118.934h-.031l-13.448-1.348a.33.33 0 0 1-.218-.118.3.3 0 0 1-.056-.236L164.69 43.29a.31.31 0 0 1 .305-.26l17.468-.156a.3.3 0 0 1 .243.112.31.31 0 0 1 .068.26L167.49 118.68a.31.31 0 0 1-.305.254m-13.068-1.932 12.837 1.286 15.135-74.793-16.802.15Z"/><path fill="#fff" d="m166.998 34.07-1.935 9.27s2.06 6.157 8.301 5.505a12.5 12.5 0 0 0 9.11-5.66l2.216-17.038s-4.163-2.989-1.537-12.527a30.3 30.3 0 0 1-16 .075s-4.163 10.171-4.057 14.912 3.902 5.462 3.902 5.462Z"/><path fill="#231f20" d="M172.462 49.218c-5.7 0-7.68-5.717-7.704-5.779a.3.3 0 0 1 0-.168l1.867-8.966c-.959-.298-3.734-1.516-3.846-5.654-.1-4.785 3.908-14.658 4.082-15.074a.324.324 0 0 1 .38-.193 30.26 30.26 0 0 0 15.812-.068.317.317 0 0 1 .41.385c-2.532 9.22 1.382 12.16 1.42 12.185a.31.31 0 0 1 .13.304l-2.215 17.038a.3.3 0 0 1-.044.118 12.67 12.67 0 0 1-9.334 5.816 8 8 0 0 1-.958.056m-7.063-5.903c.267.733 2.327 5.791 7.934 5.213a12.3 12.3 0 0 0 8.83-5.45l2.184-16.776c-.746-.621-3.764-3.902-1.655-12.197a31.5 31.5 0 0 1-15.345 0c-.623 1.615-4.02 10.32-3.933 14.552.093 4.443 3.49 5.095 3.64 5.126.084.013.158.06.205.13.05.073.068.163.05.25Z"/><path fill="#fff" d="M181.186 25.376a3.98 3.98 0 0 1 1.624-1.932 7 7 0 0 1 2.26-.777 3 3 0 0 1 1.306-.062c.296.093.572.238.815.429a3.1 3.1 0 0 1 1.245 1.721c.088.584.035 1.18-.156 1.74a7 7 0 0 1-.715 1.77 4.823 4.823 0 0 1-6.671 1.647"/><path fill="#231f20" d="M183.439 30.937a5.2 5.2 0 0 1-2.7-.751.323.323 0 0 1 .092-.587.32.32 0 0 1 .243.04 4.62 4.62 0 0 0 3.435.534 4.56 4.56 0 0 0 2.8-2.069 6.7 6.7 0 0 0 .679-1.696 3.35 3.35 0 0 0 .15-1.578 2.8 2.8 0 0 0-1.127-1.535 2.2 2.2 0 0 0-.71-.38 2.76 2.76 0 0 0-1.157.063 7 7 0 0 0-2.19.74 3.66 3.66 0 0 0-1.494 1.776.333.333 0 0 1-.622-.236 4.35 4.35 0 0 1 1.755-2.088 7.4 7.4 0 0 1 2.414-.801c.473-.13.969-.15 1.45-.056.338.1.653.264.927.485a3.36 3.36 0 0 1 1.376 1.907 4 4 0 0 1-.156 1.864 7.5 7.5 0 0 1-.747 1.864 5.21 5.21 0 0 1-3.192 2.368 5 5 0 0 1-1.226.136m-17.188 7.767a7.93 7.93 0 0 0 6.46-1.18c3.012-2.206 2.98-3.728 2.98-3.728s-4.61 1.777-8.469.453l-.97 4.455Z"/><path fill="#231f20" d="M168.224 39.257a8 8 0 0 1-2.06-.254.304.304 0 0 1-.211-.36l.97-4.468a.3.3 0 0 1 .15-.205.3.3 0 0 1 .249 0c3.702 1.242 8.214-.429 8.257-.448a.3.3 0 0 1 .28 0 .29.29 0 0 1 .137.249c0 .068 0 1.709-3.111 3.983a7.83 7.83 0 0 1-4.661 1.503m-1.606-.782a7.64 7.64 0 0 0 5.912-1.2c1.836-1.348 2.49-2.417 2.72-3-1.307.415-4.711 1.292-7.798.372Z"/><path fill="#fff" d="M172.568 20.2s-3.952 4.157-3.342 5.102c.61.944 2.794.795 2.794.795"/><path fill="#231f20" d="M171.56 26.39c-.741 0-2.079-.119-2.596-.92-.672-1.032 2.135-4.182 3.373-5.48a.311.311 0 0 1 .534.217c0 .081-.033.16-.092.217-2.016 2.125-3.56 4.35-3.304 4.722.41.622 1.991.665 2.489.622a.31.31 0 0 1 .336.28.31.31 0 0 1-.286.335c-.025-.006-.212.006-.455.006Z"/><ellipse cx="177.918" cy="20.975" fill="#231f20" rx="1.112" ry="1" transform="rotate(-68.08 177.918 20.975)"/><ellipse cx="169.72" cy="19.636" fill="#231f20" rx="1.112" ry="1" transform="rotate(-68.08 169.72 19.636)"/><path fill="#231f20" d="M172.014 31.633q-.481 0-.946-.118c-4.306-1.037-4.207-6.058-4.207-6.108a.317.317 0 0 1 .324-.298.305.305 0 0 1 .298.317c0 .186-.08 4.567 3.734 5.487s5.7-5.102 5.719-5.164a.31.31 0 1 1 .591.187c-.08.248-1.83 5.697-5.513 5.697"/><path fill="#fff" d="m36 45.98 23.26 26.03 32.547 11.364-4.157 8.587s-21.127-3.187-29.447-4.12c-8.32-.931-18.837-13.408-18.837-13.408Z"/><path fill="#231f20" d="M87.65 92.266h-.044c-.211 0-21.22-3.194-29.44-4.12-8.345-.938-18.607-12.999-19.036-13.515a.28.28 0 0 1-.075-.161l-3.367-28.49a.32.32 0 0 1 .18-.316.31.31 0 0 1 .362.074l23.21 25.967 32.471 11.34a.3.3 0 0 1 .18.174.3.3 0 0 1 0 .254l-4.162 8.612a.31.31 0 0 1-.28.18Zm-47.985-17.97c.865 1.007 10.79 12.353 18.569 13.229s26.927 3.728 29.248 4.088l3.908-8.077-32.216-11.253a.3.3 0 0 1-.131-.087l-22.62-25.283Z"/><path fill="#fff" d="M47.294 33.075c-.323-2.181-1.2-4.238-1.867-6.332-1.68-5.076-1.923-10.314-3.684-15.372C39.484 4.865 35.147.13 27.561.398a7.735 7.735 0 0 0-7.137 4.76c-3.591-1.977-8.376 2.044-8.544 5.722-.25 5.424.1 10.054-2.266 15.192-1.792 3.902-4.567 7.556-4.797 11.843-.23 4.288 2.202 8.295 5.687 10.663 3.485 2.367 7.878 3.156 12.079 2.846 4.2-.311 8.264-1.653 12.166-3.256a31.5 31.5 0 0 0 5.5-2.771c3.965-2.647 7.804-7.277 7.045-12.322"/><path fill="#231f20" d="M20.853 51.797a18.7 18.7 0 0 1-10.523-2.964c-3.734-2.554-6.049-6.835-5.825-10.93.168-3.163 1.7-6.002 3.18-8.749.567-1.05 1.152-2.131 1.65-3.212 1.916-4.194 2.022-7.923 2.14-12.272 0-.913.05-1.864.093-2.802.1-2.138 1.7-4.487 3.902-5.717a5.22 5.22 0 0 1 4.81-.41A8 8 0 0 1 27.53.093c6.845-.223 11.861 3.623 14.493 11.185a57 57 0 0 1 1.923 7.922 58 58 0 0 0 1.761 7.456c.175.516.355 1.038.542 1.554a26.4 26.4 0 0 1 1.369 4.834c.771 5.25-3.211 9.942-7.2 12.62a31.2 31.2 0 0 1-5.57 2.802c-3.28 1.348-7.629 2.939-12.259 3.28a31 31 0 0 1-1.736.05Zm-2.49-46.851a5.33 5.33 0 0 0-2.594.74c-2.023 1.13-3.497 3.274-3.585 5.206a152 152 0 0 0-.093 2.79c-.118 4.232-.224 8.22-2.197 12.52-.504 1.094-1.095 2.188-1.667 3.244-1.444 2.684-2.944 5.468-3.112 8.488-.205 3.877 1.973 7.953 5.557 10.39 3.15 2.13 7.362 3.106 11.88 2.789s8.836-1.901 12.072-3.231a31 31 0 0 0 5.445-2.746c3.827-2.554 7.66-7.053 6.926-12.018a26 26 0 0 0-1.344-4.716c-.18-.515-.367-1.037-.541-1.565a59 59 0 0 1-1.786-7.519 55 55 0 0 0-1.867-7.841C38.868 4.095 34.226.472 27.555.708a7.43 7.43 0 0 0-6.845 4.58.3.3 0 0 1-.18.161.3.3 0 0 1-.25 0 3.9 3.9 0 0 0-1.91-.478l-.006-.025Z"/><path fill="#e7816b" d="M47.412 49.883a64 64 0 0 0-.852-3.064c-.822-2.715-1.799-6.654-3.734-8.81-3.155-3.492-10.255-3.604-14.568-3.63-6.677-.036-13.503 1.53-18.961 5.363C.897 45.645-.66 54.214.305 63.77c1.108 10.687 2.49 21.35 3.989 31.994.15 1.093 1.948 17.354 2.757 17.36.056 0 55.383.044 53.616 1.349-2.489-8.63-4.356-17.398-6.36-26.097-.423-1.864-1.176-3.554-1.636-5.369-.666-2.622-.361-5.499-.623-8.183-.541-6.214-1.866-12.328-3.16-18.417-.455-2.187-.928-4.368-1.476-6.524"/><path fill="#231f20" d="M63.094 127.167 56.753 99.38l-51.215 4.213-.653 23.574Z"/><path fill="#231f20" d="M63.094 127.478H4.885a.32.32 0 0 1-.224-.093.32.32 0 0 1-.087-.224l.622-23.574a.32.32 0 0 1 .286-.305l51.215-4.213a.33.33 0 0 1 .33.243l6.34 27.787a.317.317 0 0 1-.274.379Zm-57.873-.621h57.493l-6.222-27.141-50.667 4.163Zm27.493-69.071q.257.105.535.125c1.164.087 2.078-.994 2.558-2.057 1.07-2.367 1.07-5.064.883-7.649a12 12 0 0 0-.964-4.436 10 10 0 0 0-2.265-2.877c-1.662-1.535-3.678-2.821-5.925-3.107-2.246-.286-5.532.932-6.223 3.392-.721 2.66 2.079 5.338 3.436 7.295a79 79 0 0 0 6.41 8.078c.416.525.949.948 1.555 1.236"/><path fill="#231f20" d="M33.386 58.221h-.162a2.5 2.5 0 0 1-.622-.143 4.7 4.7 0 0 1-1.662-1.31 81 81 0 0 1-6.434-8.078 28 28 0 0 0-.934-1.243c-1.406-1.796-3.16-4.039-2.539-6.313.691-2.548 3.94-3.933 6.54-3.623 2.036.237 4.09 1.305 6.1 3.17a10.2 10.2 0 0 1 2.333 2.963 12.4 12.4 0 0 1 .995 4.555c.18 2.485.212 5.312-.914 7.792-.243.553-1.14 2.23-2.701 2.23m-.56-.733q.216.088.448.106c.977.087 1.817-.92 2.246-1.864 1.064-2.355 1.033-5.108.86-7.494a11.9 11.9 0 0 0-.934-4.35 9.6 9.6 0 0 0-2.197-2.783c-1.91-1.771-3.846-2.784-5.75-3.007-2.296-.268-5.27.963-5.868 3.168-.535 1.976 1.108 4.083 2.433 5.767.348.447.678.87.958 1.242a79 79 0 0 0 6.385 8.035c.375.498.86.902 1.419 1.18"/><path fill="#fff" d="M59.584 8.27h87.482v93.254H59.584Z"/><path fill="#231f20" d="M147.06 101.828H59.584a.31.31 0 0 1-.31-.31V8.27a.31.31 0 0 1 .31-.31h87.476a.31.31 0 0 1 .311.31v93.248a.31.31 0 0 1-.311.31m-87.164-.621h86.853V8.581H59.896Z"/><path fill="#fff" d="M65.229 15.441h76.181v68.455H65.229Z"/><path fill="#d1d3d4" d="M141.416 84.207H65.229a.31.31 0 0 1-.312-.311V15.44c0-.172.14-.31.312-.31h76.187a.31.31 0 0 1 .311.31v68.442a.31.31 0 0 1-.311.324Zm-75.876-.622h75.564V15.751H65.54Z"/><path fill="#e7816b" d="M132.89 39.35c-1.095 1.206-2.14 2.486-3.285 3.61-2.994 3.045-6.03 6.047-9.049 9.066-.105.106-.186.249-.31.305-.542.236-1.245.758-1.606.578a2.12 2.12 0 0 1-.822-1.585c-.087-2.33-.03-4.66-.03-7.152C116.804 44.172 115.877 44.135 114.95 44.172c-3.504.168-6.877.864-9.926 2.685a12.16 12.16 0 0 0-6.266 10.308c.032 1.159.218 2.308.553 3.418.131.584.46 1.242-.273 1.472a1.6 1.6 0 0 1-1.363-.745 32 32 0 0 1-2.265-5.872c-2.097-9.47 3.111-18.15 12.526-21.127a27.7 27.7 0 0 1 8.395-1.31h1.45v-5.288c-.019-.832.038-1.664.168-2.486.187-.944.784-1.168 1.624-.702.34.213.65.47.921.764a5818 5818 0 0 1 11.376 11.39q.559.654 1.014 1.385Z"/><path fill="#e7816b" d="M85.515 73.507a9.92 9.92 0 0 1-5.52-3.107 8.78 8.78 0 0 1-2.146-5.779c0-8.245-.05-16.484 0-24.73a8.77 8.77 0 0 1 2.577-6.254 8.8 8.8 0 0 1 6.265-2.569 95 95 0 0 1 4.605 0c1.245 0 2.029.74 2.017 1.82-.013 1.082-.778 1.697-1.992 1.71h-4.493a5.3 5.3 0 0 0-3.874 1.51 5.28 5.28 0 0 0-1.583 3.84q-.038 12.426 0 24.854c0 1.405.563 2.751 1.564 3.739a5.27 5.27 0 0 0 3.763 1.517h30.492a5.27 5.27 0 0 0 3.93-1.509 5.25 5.25 0 0 0 1.565-3.903c.043-2.59 0-5.182 0-7.773 0-1.243.535-1.901 1.55-2.038.845-.118 1.866.466 1.866 1.311 0 3.461.255 6.96-.162 10.37-.46 3.729-3.36 6.214-7.1 6.916a2.4 2.4 0 0 0-.405.156Z"/><path fill="#d1d3d4" d="M140.85 90.8H76.335a.31.31 0 1 1 0-.622h64.513a.31.31 0 1 1 0 .621Zm-16.037 4.84H76.336a.31.31 0 1 1 0-.622h48.477a.31.31 0 0 1 .311.31.317.317 0 0 1-.311.312"/><ellipse cx="68.819" cy="91.744" fill="#fff" rx="3.584" ry="3.579"/><path fill="#d1d3d4" d="M68.82 95.64a3.9 3.9 0 0 1-3.61-2.401 3.89 3.89 0 0 1 .842-4.248 3.91 3.91 0 0 1 4.253-.847 3.896 3.896 0 0 1-1.486 7.496Zm0-7.165a3.28 3.28 0 0 0-3.036 2.019 3.27 3.27 0 0 0 .71 3.571 3.28 3.28 0 0 0 3.577.709 3.275 3.275 0 0 0-1.252-6.299Z"/><path fill="#fff" d="M39.204 14.217s3.112 7.239 2.21 12.949A8.27 8.27 0 0 1 35.476 34l.622 9.973s.38 5.095-5.93 4.716a10.78 10.78 0 0 1-8.812-5.636L19.484 24.78s6.845-4.536 5.781-11.079c0 0 8.693 3.523 13.94.516Z"/><path fill="#231f20" d="M30.853 49.031h-.672a11.2 11.2 0 0 1-9.073-5.81.3.3 0 0 1-.031-.105l-1.904-18.305a.32.32 0 0 1 .137-.292c.068-.044 6.646-4.505 5.65-10.768a.3.3 0 0 1 .112-.292.31.31 0 0 1 .311-.044c.081 0 8.613 3.43 13.653.528a.33.33 0 0 1 .255 0 .3.3 0 0 1 .187.174c.13.299 3.174 7.388 2.24 13.123a8.66 8.66 0 0 1-5.911 7.028l.622 9.724a4.97 4.97 0 0 1-1.32 3.58c-.97.962-2.401 1.46-4.256 1.46Zm-9.16-6.052a10.54 10.54 0 0 0 8.525 5.412c1.998.119 3.498-.31 4.45-1.28a4.4 4.4 0 0 0 1.151-3.106l-.622-9.942a.31.31 0 0 1 .242-.323 7.93 7.93 0 0 0 5.7-6.599c.791-4.89-1.493-11.017-2.072-12.464-4.642 2.404-11.5.217-13.397-.479.578 5.828-4.83 10.035-5.825 10.756Z"/><path fill="#fff" d="M22.857 23.264s-3.566-6.723-6.727-2.138c-3.161 4.586 2.19 9.047 5.246 8.432"/><path fill="#231f20" d="M20.766 29.937c-1.749 0-3.84-1.243-4.978-3.001a5.06 5.06 0 0 1 .118-5.978c.84-1.242 1.798-1.801 2.85-1.733 2.408.143 4.356 3.728 4.406 3.896a.31.31 0 0 1-.548.286s-1.867-3.437-3.945-3.56q-1.244-.075-2.297 1.466a4.48 4.48 0 0 0-.112 5.281c1.177 1.79 3.442 2.989 5.041 2.666.17-.03.333.08.367.248a.304.304 0 0 1-.243.36 3.4 3.4 0 0 1-.66.07Zm15.824-2.815a8 8 0 0 1-1.511-.143.3.3 0 0 1-.243-.36.31.31 0 0 1 .367-.249s2.016.392 2.968-.186c.137-.777-1.78-3.38-3.173-4.97a.304.304 0 0 1 .03-.436.32.32 0 0 1 .443 0c.622.684 3.54 4.176 3.335 5.456a.68.68 0 0 1-.317.484 3.8 3.8 0 0 1-1.898.404Zm-1.12 6.891s-5.289 1.02-8.4.441c0 0 3.852 7.63 8.923 7.258l-.522-7.699Z"/><path fill="#231f20" d="M35.632 42.041c-5.015 0-8.712-7.14-8.836-7.456a.3.3 0 0 1 0-.33.31.31 0 0 1 .336-.08c3.018.565 8.233-.423 8.289-.435a.33.33 0 0 1 .249.062c.068.055.11.136.118.224l.523 7.698a.31.31 0 0 1-.287.33 6 6 0 0 0-.392-.013m-7.984-7.189c.977 1.66 4.089 6.568 7.99 6.568l-.479-7.034c-1.113.199-4.816.783-7.51.466Z"/><ellipse cx="31.984" cy="20.029" fill="#231f20" rx="1" ry="1.373" transform="rotate(-6.85 31.984 20.03)"/><ellipse cx="38.807" cy="19.784" fill="#231f20" rx="1" ry="1.373" transform="rotate(-6.85 38.807 19.784)"/><path fill="#231f20" d="M33.442 30.111c-.453-.003-.9-.1-1.313-.286-1.519-.658-2.49-2.485-2.894-5.474a.314.314 0 0 1 .623-.087c.373 2.74 1.244 4.418 2.526 4.971 1.574.696 3.348-.516 3.367-.528a.312.312 0 1 1 .354.51 5.17 5.17 0 0 1-2.663.894"/><path fill="#fff" d="M117.047 101.84a20 20 0 0 1-.2-2.075 11.5 11.5 0 0 1 .666-4.243c.15-.606.482-1.15.953-1.56a1.246 1.246 0 0 1 1.667.118 1.98 1.98 0 0 1 .063 1.59 12.9 12.9 0 0 0-.218 4.4c.236-1.976.498-4.027 1.574-5.692.224-.39.543-.717.927-.95a1.25 1.25 0 0 1 1.276 0c.554.403.51 1.242.442 1.9a22.6 22.6 0 0 0 .08 5.227 14.9 14.9 0 0 1 .33-4.549c.225-.975.666-2.05 1.619-2.361.2-.07.415-.083.622-.037.435.147.753.522.827.975.072.445.072.898 0 1.342-.18 1.75-.125 3.516.162 5.25a12.6 12.6 0 0 1 .168-4.572 3.6 3.6 0 0 1 .697-1.653 1.46 1.46 0 0 1 1.63-.479c.422.224.714.63.79 1.1q.11.7.05 1.405a12.7 12.7 0 0 0 .965 5.17c.56 1.36 1.288 2.87 1.158 4.392a4.42 4.42 0 0 1-2.875 3.523 8.4 8.4 0 0 1-4.717.224c-5.147-1.019-9.397-3.467-11.201-8.382"/><path fill="#231f20" d="M127.88 110.857a11.4 11.4 0 0 1-2.22-.23c-5.925-1.175-9.777-4.064-11.457-8.587a.33.33 0 1 1 .622-.224c1.593 4.3 5.29 7.052 10.977 8.177 1.5.37 3.076.3 4.537-.205a4.1 4.1 0 0 0 2.67-3.25c.111-1.286-.43-2.572-.953-3.809l-.18-.44a13.2 13.2 0 0 1-.99-5.301v-.218q.05-.555-.043-1.106a1.24 1.24 0 0 0-.622-.876 1.17 1.17 0 0 0-1.245.392 3.3 3.3 0 0 0-.622 1.516 12.1 12.1 0 0 0-.168 4.455.323.323 0 0 1-.268.367.32.32 0 0 1-.348-.236 20 20 0 0 1-.162-5.338v-.106c.06-.376.06-.76 0-1.137a.93.93 0 0 0-.622-.733.9.9 0 0 0-.467.031c-.654.211-1.126.932-1.407 2.125a14.5 14.5 0 0 0-.317 4.45.323.323 0 0 1-.622.068 23 23 0 0 1-.081-5.3c.062-.622.093-1.305-.311-1.604a.92.92 0 0 0-.934 0 2.3 2.3 0 0 0-.815.833c-1.058 1.64-1.3 3.728-1.518 5.592a.32.32 0 0 1-.318.28.32.32 0 0 1-.317-.28 13.2 13.2 0 0 1 .218-4.505c.18-.425.18-.904 0-1.33a.62.62 0 0 0-.43-.248 1.07 1.07 0 0 0-.784.193 2.73 2.73 0 0 0-.84 1.404 10.9 10.9 0 0 0-.653 4.12c0 .217.031.41.043.59q.033.735.156 1.46a.323.323 0 0 1-.622.106 13 13 0 0 1-.162-1.523c0-.18 0-.373-.044-.584-.052-1.48.18-2.956.685-4.35a3.34 3.34 0 0 1 1.064-1.72 1.74 1.74 0 0 1 1.245-.311c.34.047.646.229.852.503a2.24 2.24 0 0 1 .118 1.864 1 1 0 0 0 0 .1 8 8 0 0 1 .79-1.628 3 3 0 0 1 1.052-1.057 1.53 1.53 0 0 1 1.612.044c.622.472.622 1.342.622 1.945a2.68 2.68 0 0 1 1.587-1.771c.264-.094.55-.109.822-.044.563.179.977.66 1.07 1.243.057.284.074.575.05.864q.163-.339.41-.622a1.76 1.76 0 0 1 2.004-.559c.511.268.87.756.971 1.324a5 5 0 0 1 .068 1.242v.218a12.7 12.7 0 0 0 .94 5.04l.18.434c.53 1.243 1.127 2.666 1.002 4.113a4.69 4.69 0 0 1-3.074 3.79 7.2 7.2 0 0 1-2.75.349Z"/><path fill="#fff" d="m182.15 67.144-.945 14.254s-29.248-22.99-34.145-23.978v4.02s-8.134-.994-8.78.621c-.648 1.616.454 7.755 2.57 8.998 1.244.751 11.754.814 11.754.814s1.488 3.64 15.987 16.981 28.14 20.474 28.993 7.979c.852-12.496 1.935-33.554 1.935-33.554"/><path fill="#231f20" d="M192.22 103.612c-5.147 0-13.622-5.133-23.847-14.54-12.75-11.738-15.47-15.982-15.968-16.895-1.736 0-10.473-.124-11.717-.857-2.328-1.374-3.404-7.662-2.707-9.395.697-1.734 6.795-1.094 8.761-.876v-3.66a.33.33 0 0 1 .119-.249.34.34 0 0 1 .267-.068c4.624.932 29.87 20.58 33.797 23.667l.902-13.632a.323.323 0 1 1 .623.043l-.921 14.248a.3.3 0 0 1-.193.267.32.32 0 0 1-.33-.037c-.28-.224-27.866-21.878-33.604-23.81v3.597a.323.323 0 0 1-.36.323c-3.274-.404-8.09-.534-8.445.429-.592 1.473.485 7.456 2.433 8.606.877.516 7.411.74 11.593.77a.32.32 0 0 1 .299.2c0 .03 1.724 3.808 15.906 16.863 11.636 10.693 20.846 15.782 25.327 14.036 1.867-.74 2.906-2.709 3.111-5.847.84-12.346 1.923-33.348 1.936-33.553a.317.317 0 0 1 .336-.305.32.32 0 0 1 .305.336c0 .211-1.096 21.22-1.936 33.553-.236 3.405-1.419 5.593-3.528 6.394-.688.268-1.421.4-2.16.392Z"/><path fill="#fff" d="m181.205 81.367 7.013 5.219"/><path fill="#231f20" d="M188.218 86.91a.4.4 0 0 1-.193-.063l-7.013-5.219a.33.33 0 0 1-.062-.454.324.324 0 0 1 .448-.062l7.013 5.22a.323.323 0 0 1-.193.578"/><path fill="#fff" d="M19.005 55.637S31.003 77.88 31.326 78.75c.112.292 24.724-12.868 25.626-14.664a12.6 12.6 0 0 1 .579-5.996c.398-1.05 1.132-1.18 2.004-1.92a30 30 0 0 0-.075 3.946 46 46 0 0 1 5.34-4.822 1.73 1.73 0 0 1 1.567-.51c.258.13.474.33.623.578 2.551 3.585.423 7.891-1.407 11.247-3.447 6.313-8.612 10.233-14.1 14.645a136 136 0 0 1-11.395 8.171 57 57 0 0 1-9.677 5.25c-2.028.808-4.829 1.865-6.982.858-7.81-3.616-16.764-22.096-19.21-30.23"/><path fill="#231f20" d="M25.464 96.255a5.05 5.05 0 0 1-2.14-.441c-4.425-2.045-8.837-8.494-11.756-13.546a89 89 0 0 1-7.616-16.87.31.31 0 0 1 .59-.18c2.49 8.363 11.513 26.55 19.043 30.036 1.954.901 4.505 0 6.74-.863a57 57 0 0 0 9.614-5.226 136 136 0 0 0 11.375-8.152l.946-.764c5.072-4.058 9.857-7.892 13.068-13.788 1.935-3.542 3.796-7.593 1.425-10.918-.12-.2-.294-.362-.504-.466-.392-.155-.884.168-1.244.46a47 47 0 0 0-5.302 4.79.311.311 0 0 1-.536-.186c-.05-.571-.043-2.237 0-3.305l-.217.149a2.36 2.36 0 0 0-1.12 1.243 12.4 12.4 0 0 0-.567 5.828.3.3 0 0 1 0 .193c-.523 1.043-7.386 5.008-13.068 8.146-3.236 1.795-12.265 6.698-12.856 6.698a.34.34 0 0 1-.287-.205c-.249-.671-8.158-15.391-12.302-23.078a.311.311 0 1 1 .547-.298c.467.87 10.934 20.288 12.216 22.891C34.226 77.322 55.297 65.753 56.628 64a12.76 12.76 0 0 1 .623-6.033c.259-.65.74-1.187 1.356-1.517q.387-.244.74-.534c.1-.085.241-.1.356-.037.111.064.172.19.155.317a28 28 0 0 0-.106 3.156 47 47 0 0 1 4.867-4.35c.51-.39 1.188-.813 1.867-.552.324.15.598.389.79.69 2.788 3.914.174 8.698-1.388 11.575-3.273 6.003-8.09 9.874-13.23 13.975l-.952.764a135 135 0 0 1-11.419 8.19 57.5 57.5 0 0 1-9.726 5.281c-1.604.75-3.331 1.2-5.097 1.33"/><path fill="#231f20" d="M19.005 55.922a.31.31 0 0 1-.268-.155l-6.024-10.259a.313.313 0 1 1 .542-.317l6.036 10.29a.304.304 0 0 1-.112.423.3.3 0 0 1-.174.018M182.15 67.467a.32.32 0 0 1-.285-.348l1.325-14.422c.02-.173.174-.3.349-.285a.31.31 0 0 1 .292.348l-1.332 14.415a.317.317 0 0 1-.348.292Z"/></g></g></svg>