<svg xmlns="http://www.w3.org/2000/svg" width="202" height="202"><g fill="none" fill-rule="evenodd"><circle cx="101" cy="101" r="101" opacity=".203" transform="matrix(-1 0 0 1 202 0)"/><g fill-rule="nonzero" transform="translate(7 20)"><path fill="#231f20" d="M157.845 118.136s22.594-58.965 10.888-67.957c-11.705-8.993-60.798-5.361-63.487-2.149-2.69 3.213-18.526 74.19-18.526 74.19Z"/><path fill="#231f20" d="M86.686 122.578a.36.36 0 0 1-.26-.117.33.33 0 0 1-.07-.295c.645-2.904 15.912-71.102 18.629-74.342 1.489-1.778 14.594-3.432 28.619-3.617 8.233-.11 28.193.226 35.342 5.711 4.975 3.817 4.659 16.475-.933 37.7-4.117 15.698-9.791 30.491-9.846 30.635a.34.34 0 0 1-.302.22l-71.159 4.118Zm49.511-77.705h-2.58c-14.409.192-26.93 1.97-28.131 3.377-2.059 2.478-12.872 48.964-18.388 73.607l70.486-4.064c1.448-3.837 21.956-58.883 10.923-67.346-4.645-3.563-16.357-5.574-32.31-5.574"/><path fill="#fff" d="M66.102 67.189 55.92 101.38s21.002 2.712 21.002 1.936c0-.775 4.117-37.624 4.117-37.624L66.102 67.19Z"/><path fill="#231f20" d="M75.866 103.762c-3.548 0-13.613-1.221-19.987-2.059a.35.35 0 0 1-.289-.44l10.183-34.19a.34.34 0 0 1 .295-.248l14.944-1.496a.34.34 0 0 1 .274.103c.075.07.11.172.096.274-1.42 12.7-4.117 36.896-4.117 37.59a.44.44 0 0 1-.137.295 2.8 2.8 0 0 1-1.262.171m-19.528-2.67c7.3.934 18.636 2.231 20.227 2.005.261-2.966 3.603-32.895 4.062-37.02L66.342 67.51Z"/><path fill="#fff" d="M46.801 58.698c.09.096 3.705-.872 5.571 1.372 1.867 2.245-.555 4.25-6.45 3.09-5.893-1.16.879-4.462.879-4.462"/><path fill="#231f20" d="M49.03 63.839a16.8 16.8 0 0 1-3.176-.336c-1.701-.337-2.58-.886-2.683-1.689-.199-1.551 2.862-3.123 3.48-3.432a.34.34 0 0 1 .219 0h.226c.96-.117 3.884-.488 5.544 1.503.741.879.899 1.778.46 2.533-.57.9-2.045 1.421-4.07 1.421m-2.154-4.805c-1.337.686-3.1 1.894-3.005 2.656 0 .254.357.735 2.12 1.085 3.987.783 5.99.055 6.498-.803a1.52 1.52 0 0 0-.391-1.716c-1.413-1.689-3.959-1.373-4.913-1.25-.13.028-.226.028-.309.028"/><path fill="#fff" d="M37.737 51.524s-.74-.85-.274-1.448a1.008 1.008 0 0 1 1.633.15s-1.167.42-1.359 1.298"/><path fill="#231f20" d="M37.737 51.874a.36.36 0 0 1-.267-.116c-.343-.399-.796-1.25-.282-1.895.234-.307.596-.487.981-.487.475.008.917.24 1.194.624.077.09.103.21.069.323a.35.35 0 0 1-.22.24c-.274.096-1.008.48-1.132 1.037a.35.35 0 0 1-.254.267Zm.446-1.791a.56.56 0 0 0-.432.213.53.53 0 0 0 0 .487c.207-.254.458-.468.741-.632a.56.56 0 0 0-.302-.04Z"/><path fill="#fff" d="M39.356 50.193a1.85 1.85 0 0 0-1.674 1.523L52.4 70.875a4.12 4.12 0 0 1 3.52-3.672Z"/><path fill="#231f20" d="M52.393 71.225a.35.35 0 0 1-.274-.137L37.4 51.929a.36.36 0 0 1-.062-.309 2.24 2.24 0 0 1 2.017-1.784.35.35 0 0 1 .254.11l16.564 17.01a.34.34 0 0 1 .082.356.35.35 0 0 1-.275.24 3.76 3.76 0 0 0-3.231 3.35.35.35 0 0 1-.254.31Zm-14.32-19.577L52.215 70.05a4.39 4.39 0 0 1 3.012-3.054l-16-16.434a1.51 1.51 0 0 0-1.154 1.085Z"/><path fill="#fff" d="m52.4 70.875 5.022 2.608.625-.583-2.127-5.697s-3.911-.392-3.52 3.672"/><path fill="#231f20" d="M57.422 73.834a.33.33 0 0 1-.164-.042l-5.023-2.608a.35.35 0 0 1-.192-.282 3.65 3.65 0 0 1 .885-3.075 4.12 4.12 0 0 1 3.026-.981.36.36 0 0 1 .302.233l2.12 5.697a.35.35 0 0 1-.09.385l-.624.583a.36.36 0 0 1-.24.09m-4.686-3.186 4.625 2.403.274-.247-1.962-5.258a3.35 3.35 0 0 0-2.25.782 2.88 2.88 0 0 0-.687 2.32"/><path fill="#fff" d="m57.422 73.483.96 1.03.454-.515-.79-1.098Z"/><path fill="#231f20" d="M58.383 74.87a.33.33 0 0 1-.254-.117l-.967-1.03a.38.38 0 0 1-.096-.253.36.36 0 0 1 .116-.247l.625-.584a.357.357 0 0 1 .528.055l.789 1.098a.35.35 0 0 1 0 .44l-.453.515a.34.34 0 0 1-.26.123Zm-.46-1.373.453.488-.391-.543Z"/><path fill="#fff" d="M47.734 72.378c.81-1.64 2.84-5.12 3.307-6.63 1.29-4.12-6.264-7.977-8.707-7.977-2.442 0-7.547 8.54-7.547 13.104 0 4.565 16.913 39.518 16.913 39.518l16.227-7.427Z"/><path fill="#231f20" d="M51.72 110.75a.35.35 0 0 1-.315-.199c-.686-1.428-16.954-35.09-16.954-39.676s5.16-13.461 7.883-13.461c1.88 0 6.251 2.004 8.234 4.668a4.12 4.12 0 0 1 .844 3.775 38 38 0 0 1-2.292 4.702c-.364.687-.686 1.304-.947 1.792l20.097 30.41a.37.37 0 0 1 .048.294.36.36 0 0 1-.192.22l-16.234 7.441a.26.26 0 0 1-.171.034Zm-9.386-52.63c-2.147 0-7.17 8.238-7.17 12.755 0 4.201 15.047 35.564 16.721 39.058l15.541-7.125L47.44 72.605a.37.37 0 0 1 0-.357c.26-.522.638-1.229 1.05-1.998a37.5 37.5 0 0 0 2.237-4.578 3.43 3.43 0 0 0-.734-3.144c-1.915-2.602-6.08-4.407-7.658-4.407Z"/><path fill="#e7816b" d="m134.07 79.298 20-5.1c-.685-.969-8.754-26.593-17.262-30.787-7.445-4.943-25.099-8.238-40.695-7.119 0 0-4.117-.15-11.335 2.712C67.2 45.992 63.81 70.326 63.81 70.326l13.723 4.743s-2.621 31.473-5.098 47.927c0 0 30.34 5.938 74.514-1.372.034-.014-12.797-37.672-12.879-42.326"/><path fill="#e7816b" d="M132.423 44.118c-2.648 2.745-4.713 6.04-7.636 8.628-6.299 5.574-14.54 9.988-23.178 9.452-10.182-.631-18.985-7.592-21.194-17.73-1.373-6.357.054-12.26 4.967-16.75 3.397-3.102 7.747-4.997 12.193-6.177 11.808-3.165 25.057-1.483 35.137 5.45a12.55 12.55 0 0 1 4.061 4.036c2.519 4.565-.377 9.26-3.643 12.397-.22.213-.453.453-.707.694"/><path fill="#231f20" d="M97.685 51.311c-.103 0-1.997 2.307-2.093 2.341 1.077 4.064 2.216 9.356 6.813 9.878 9.325 1.064 10.738-11.374 12.495-17.243-6.457 1.812-11.013 2.54-17.215 5.024"/><path fill="#231f20" d="M103.496 63.942a11 11 0 0 1-1.125-.069c-4.59-.521-5.887-5.491-6.937-9.466l-.178-.686a.34.34 0 0 1 .137-.364c.11-.103.61-.686.974-1.112 1.064-1.222 1.077-1.229 1.187-1.277a85 85 0 0 1 11.664-3.576c1.75-.44 3.555-.893 5.558-1.455a.34.34 0 0 1 .336.089c.084.09.115.217.083.336-.261.872-.515 1.902-.79 2.993-1.42 5.876-3.595 14.58-10.909 14.587m-7.547-10.18.123.474c1.05 3.981 2.23 8.49 6.354 8.923 7.636.872 9.77-7.715 11.335-13.99.212-.857.418-1.681.624-2.422-1.777.487-3.43.899-4.988 1.297a83 83 0 0 0-11.555 3.528c-.137.138-.617.687-.974 1.105-.48.618-.748.92-.899 1.085Z"/><path fill="#fff" d="M106.714 3.432c-1.372-.055-2.25.542-3.43.968-2.3.81-3.37-1.112-5.346-2.135a15.18 15.18 0 0 0-18.827 3.947 11.35 11.35 0 0 0-2.56 5.698c-.287 2.375.378 4.805-.034 7.152a8.08 8.08 0 0 1-4.995 6.041 19.2 19.2 0 0 0 6.532-.618 6.65 6.65 0 0 1-4.967 2.369 12.35 12.35 0 0 0 7.636 2.56l-4.837 1.133c4.117 2.642 9.133 3.432 13.983 3.212 9.661-.5 25.84-4.455 25.559-16.976-.158-4.798-2.793-13.076-8.714-13.35Z"/><path fill="#231f20" d="M88.21 34.164c-3.7 0-8.434-.686-12.537-3.308a.35.35 0 0 1-.15-.35.36.36 0 0 1 .26-.275l2.69-.625a12.76 12.76 0 0 1-5.626-2.457.343.343 0 0 1 .205-.618 6.3 6.3 0 0 0 3.863-1.407c-1.79.371-3.625.487-5.448.343a.34.34 0 0 1-.308-.295.336.336 0 0 1 .22-.37 7.7 7.7 0 0 0 4.802-5.774 15.3 15.3 0 0 0 .041-3.72 18.4 18.4 0 0 1 0-3.433A11.7 11.7 0 0 1 78.857 6 15.516 15.516 0 0 1 98.11 1.97c.584.32 1.14.69 1.66 1.105 1.112.845 1.99 1.51 3.431 1.01.309-.11.597-.234.878-.35a5.9 5.9 0 0 1 2.704-.64c5.942.262 8.92 8.32 9.015 13.688.124 5.691-2.984 10.174-9.242 13.31-6.257 3.138-13.722 3.865-16.638 4.016-.577.041-1.133.055-1.709.055Zm-11.46-3.432c4.433 2.574 9.517 2.917 13.078 2.746 2.855-.151 10.155-.83 16.365-3.947 6.003-3.007 8.981-7.27 8.864-12.679-.116-5.107-2.854-12.775-8.357-13.042a5.4 5.4 0 0 0-2.408.583c-.295.124-.597.254-.92.364-1.777.625-2.888-.22-4.061-1.112a10.6 10.6 0 0 0-1.558-1.037A14.816 14.816 0 0 0 79.351 6.46a11.03 11.03 0 0 0-2.49 5.492 17.6 17.6 0 0 0 0 3.288c.139 1.292.12 2.597-.055 3.885a8.4 8.4 0 0 1-3.96 5.69 19.2 19.2 0 0 0 5.064-.686.34.34 0 0 1 .384.145.35.35 0 0 1 0 .405 7.02 7.02 0 0 1-4.267 2.416 12 12 0 0 0 6.676 1.95.336.336 0 0 1 .343.301.343.343 0 0 1-.26.378l-4.035 1.009Z"/><path fill="#fff" d="m94.906 41.832.686 11.82s5.4 6.178 12.35 2.382 6.683-9.816 6.683-9.816l-4.563-22.193s-6.305-1.455-7.91-13.88a38.1 38.1 0 0 1-18.609 7.902s.124 13.9 2.573 19.426c2.45 5.526 8.79 4.359 8.79 4.359"/><path fill="#231f20" d="M103.38 57.606c-4.721 0-8.008-3.672-8.049-3.727a.32.32 0 0 1-.082-.206l-.686-11.457c-1.448.144-6.608.282-8.783-4.627-2.45-5.491-2.593-18.993-2.6-19.563a.35.35 0 0 1 .295-.343 38.17 38.17 0 0 0 18.43-7.812.34.34 0 0 1 .35-.062.35.35 0 0 1 .219.275c.81 6.288 2.854 9.644 4.425 11.36a7.2 7.2 0 0 0 3.225 2.224.35.35 0 0 1 .254.268l4.57 22.213c0 .117.205 6.33-6.862 10.187a9.74 9.74 0 0 1-4.707 1.27Zm-7.459-4.119c.686.749 5.599 5.65 11.863 2.225 6.67-3.652 6.505-9.453 6.505-9.508l-4.522-21.966c-1.139-.377-6.298-2.656-7.87-13.502a39.45 39.45 0 0 1-18.004 7.55c0 2.06.343 14.045 2.532 18.995 2.312 5.203 8.172 4.221 8.419 4.18a.35.35 0 0 1 .274.062.37.37 0 0 1 .13.254Z"/><path fill="#fff" d="M107.49 30.245a6.17 6.17 0 0 0 4.569-1.126 6.61 6.61 0 0 0 2.456-5.986 5.5 5.5 0 0 0-.686-2.396 2.92 2.92 0 0 0-1.942-1.455 4.7 4.7 0 0 0-2.868.762c-1.33.687-1.372 1.448-2.1 2.574.083-.103.145-.391.227-.494"/><path fill="#231f20" d="M108.409 30.663a7 7 0 0 1-.975-.075.35.35 0 0 1-.288-.398.336.336 0 0 1 .391-.282 5.8 5.8 0 0 0 4.302-1.077 6.26 6.26 0 0 0 2.313-5.684 5.1 5.1 0 0 0-.611-2.252 2.59 2.59 0 0 0-1.702-1.277c-.85-.15-1.701.24-2.648.728-.65.317-1.16.865-1.427 1.538-.144.26-.302.556-.515.878a.3.3 0 0 1-.055.076.336.336 0 0 1-.466.055.336.336 0 0 1-.083-.467s0-.09.048-.137a1.3 1.3 0 0 1 .172-.35.36.36 0 0 1 .13-.096l.13-.248a3.6 3.6 0 0 1 1.73-1.826c.81-.418 1.928-.995 3.074-.796.942.187 1.755.78 2.223 1.62.42.785.655 1.657.686 2.547a6.91 6.91 0 0 1-2.594 6.28 6.5 6.5 0 0 1-3.835 1.243M95.262 48.05a8.32 8.32 0 0 0 6.594-4.118c2.422-4.043 1.455-6.63 1.455-6.63s-3.266 4.166-8.405 4.502Z"/><path fill="#231f20" d="M95.262 48.387a.336.336 0 0 1-.336-.322l-.363-6.178a.343.343 0 0 1 .322-.364c4.92-.316 8.124-4.325 8.158-4.366a.34.34 0 0 1 .323-.13.35.35 0 0 1 .267.22c.041.11.995 2.786-1.489 6.925a8.57 8.57 0 0 1-6.86 4.25Zm0-6.246.323 5.54a8.08 8.08 0 0 0 5.962-3.9c1.64-2.746 1.681-4.75 1.558-5.711a12.9 12.9 0 0 1-7.843 4.07Z"/><path fill="#fff" d="M94 23.044s-2.573 6.782-1.407 7.592c1.167.81 3.63-.48 3.63-.48"/><path fill="#231f20" d="M93.609 31.247c-.43.02-.854-.096-1.215-.33-1.29-.892.687-6.342 1.277-7.997a.343.343 0 0 1 .631-.017.34.34 0 0 1 .007.264c-1.194 3.151-2.059 6.796-1.523 7.18.816.563 2.641-.164 3.272-.494a.35.35 0 0 1 .467.144.343.343 0 0 1-.151.46 6.8 6.8 0 0 1-2.765.79"/><ellipse cx="98.628" cy="21.533" fill="#231f20" rx="1" ry="1.407" transform="rotate(-17.91 98.628 21.533)"/><ellipse cx="89.443" cy="23.711" fill="#231f20" rx="1" ry="1.407" transform="rotate(-.78 89.443 23.71)"/><path fill="#231f20" d="M94.816 39.347a3.16 3.16 0 0 1-1.852-.543c-2.161-1.578-2.32-5.065-2.326-5.216a.35.35 0 0 1 .274-.35c8.879-1.943 8.975-1.875 9.133-1.758a.37.37 0 0 1 .144.247 8.86 8.86 0 0 1-.556 4.078 5.61 5.61 0 0 1-3.575 3.363 4.5 4.5 0 0 1-1.242.179m-3.464-5.492c.082.83.452 3.26 2.003 4.387.748.459 1.661.56 2.49.274a4.96 4.96 0 0 0 3.157-2.958 7.95 7.95 0 0 0 .521-3.433c-1.18.213-5.345 1.106-8.171 1.723Z"/><path fill="#231f20" d="M99.318 35.695C98 38.88 94.7 39.642 93.142 38.537c.35-1.215.988-2.478 2.175-2.938a5.8 5.8 0 0 1 4 .096Z"/><path fill="#231f20" d="M94.816 39.34a3.17 3.17 0 0 1-1.852-.536.34.34 0 0 1-.124-.37c.467-1.675 1.27-2.746 2.374-3.165a6.17 6.17 0 0 1 4.22.09c.089.032.16.099.2.185a.36.36 0 0 1 0 .268 5.63 5.63 0 0 1-3.576 3.356 4.6 4.6 0 0 1-1.242.172m-1.248-.968a3.07 3.07 0 0 0 2.278.137 4.89 4.89 0 0 0 3.005-2.622 5.37 5.37 0 0 0-3.39 0c-.843.343-1.461 1.18-1.893 2.485m-10.348-9.85a2.06 2.06 0 0 1-2.01-1.62l-.72-3.275a2.06 2.06 0 0 1 1.571-2.45l7.65-1.682a2.06 2.06 0 0 1 2.457 1.572l.686 3.274a2.06 2.06 0 0 1-1.544 2.43l-7.65 1.675q-.215.064-.44.076m6.938-8.361a1.4 1.4 0 0 0-.295 0l-7.644 1.675a1.373 1.373 0 0 0-1.036 1.613l.72 3.322c.17.72.881 1.176 1.606 1.03l7.65-1.716a1.374 1.374 0 0 0 1.03-1.607l-.687-3.274a1.37 1.37 0 0 0-1.317-1.064l-.027.02Zm6.696 5.375a2.06 2.06 0 0 1-1.111-.33 2.06 2.06 0 0 1-.9-1.29l-.685-3.275a2.06 2.06 0 0 1 1.571-2.457l7.644-1.675a2.06 2.06 0 0 1 2.456 1.572l.686 3.274a2.06 2.06 0 0 1-1.537 2.458l-7.643 1.675a2.5 2.5 0 0 1-.48.048Zm6.937-8.375q-.15.002-.295.034l-7.643 1.682a1.33 1.33 0 0 0-.851.59c-.194.304-.26.671-.186 1.023l.72 3.275c.171.72.881 1.175 1.606 1.03l7.65-1.676c.35-.078.656-.29.852-.59.19-.304.255-.672.178-1.023l-.686-3.274a1.37 1.37 0 0 0-1.345-1.071"/><path fill="#231f20" d="M91.818 21.5a.357.357 0 0 1-.309-.529c.323-.556 1.373-1.428 3.095-.735a.367.367 0 0 1-.26.687c-1.538-.618-2.155.322-2.217.432a.36.36 0 0 1-.309.144Z"/><path fill="#fff" d="M23.466 112.878h141.068l22.636 41.358H.83Z"/><path fill="#d1d3d4" d="M187.17 154.58H.83a.35.35 0 0 1-.295-.165.36.36 0 0 1 0-.343l22.643-41.358a.34.34 0 0 1 .301-.179h141.048a.34.34 0 0 1 .302.179l22.643 41.358a.36.36 0 0 1 0 .343.35.35 0 0 1-.302.165m-185.757-.687h185.174l-22.259-40.671H23.672Z"/><path fill="#fff" d="m25.654 86.196.302-1.304c.686-1.304 1.448-2.183 3.218-2.183h67.152a3.76 3.76 0 0 1 3.602 2.705l10.917 37.52a3.35 3.35 0 0 1-1.86 4.195l-1.187.281Z"/><path fill="#231f20" d="M107.798 127.753a.4.4 0 0 1-.15-.034L25.503 86.492a.336.336 0 0 1-.179-.385l.302-1.304a.5.5 0 0 1 0-.09c.686-1.242 1.475-2.36 3.52-2.36h67.152a4.12 4.12 0 0 1 3.931 2.951l10.923 37.569a3.694 3.694 0 0 1-2.058 4.613l-1.228.295-.069-.028ZM26.073 86.011l81.794 41.035 1.063-.247c1.654-.645 1.997-2.41 1.606-3.768L99.619 85.51a3.43 3.43 0 0 0-3.272-2.458H29.174c-1.516 0-2.168.687-2.895 1.964Z"/><path fill="#231f20" d="M107.798 127.41H39.274a2.17 2.17 0 0 1-2.058-1.565L25.682 86.196a1.023 1.023 0 0 1 .981-1.304H97.02l11.918 41.001a1.18 1.18 0 0 1-1.139 1.517Z"/><path fill="#231f20" d="M107.798 127.753H39.274a2.53 2.53 0 0 1-2.415-1.812L25.325 86.292a1.373 1.373 0 0 1 1.31-1.736H97.02a.33.33 0 0 1 .322.24l11.925 41.001a1.53 1.53 0 0 1-1.468 1.956ZM26.636 85.235a.686.686 0 0 0-.652.865l11.527 39.65c.233.78.95 1.315 1.763 1.317h68.524a.86.86 0 0 0 .686-.336.85.85 0 0 0 .13-.742l-11.87-40.754H26.637Z"/><path fill="#fff" d="m96.305 110.517-4.164 17.717a4.3 4.3 0 0 1-4.2 3.33H44.6a4.315 4.315 0 0 1-4.2-5.307l3.671-15.74h-3.588l-3.513 14.93a7.85 7.85 0 0 0 1.503 6.647 7.84 7.84 0 0 0 6.133 2.963h43.37a7.82 7.82 0 0 0 7.603-6.006l4.35-18.534Z"/><path fill="#231f20" d="M87.941 135.449H44.6a8.19 8.19 0 0 1-6.415-3.106 8.2 8.2 0 0 1-1.551-6.958l3.506-14.937a.34.34 0 0 1 .336-.26h3.623a.336.336 0 0 1 .33.419l-3.7 15.74a3.983 3.983 0 0 0 3.87 4.887h43.37a3.966 3.966 0 0 0 3.87-3.069l4.166-17.717a.336.336 0 0 1 .329-.26h3.623a.35.35 0 0 1 .336.418l-4.357 18.534a8.15 8.15 0 0 1-7.994 6.309Zm-47.226-24.575-3.43 14.67a7.5 7.5 0 0 0 1.423 6.382 7.49 7.49 0 0 0 5.89 2.836h43.37a7.47 7.47 0 0 0 7.301-5.787l4.254-18.101h-2.916l-4.116 17.45a4.63 4.63 0 0 1-4.536 3.596H44.6a4.658 4.658 0 0 1-4.536-5.732l3.596-15.314Z"/><path fill="#fff" d="M152.198 74.39s6.134 27.251 1.111 34.212c-5.022 6.96-40.097 5.862-40.097 5.862s-5.688 6.83-10.628 6.377-2.059-9.802 3.753-13.694l-.803-3.247 30.924-4.963-4.117-19.584"/><path fill="#231f20" d="M103.036 121.205h-.514a2.896 2.896 0 0 1-2.69-2.3c-.775-3.04 1.709-8.841 6.08-11.889l-.742-3.013a.336.336 0 0 1 .275-.42l30.567-4.907-4.048-19.22a.343.343 0 0 1 .267-.405.336.336 0 0 1 .405.26l4.117 19.585c.02.092 0 .19-.055.267a.34.34 0 0 1-.226.144l-30.554 4.908.686 2.883a.34.34 0 0 1-.137.364c-4.2 2.815-6.717 8.478-5.997 11.292a2.19 2.19 0 0 0 2.059 1.778c4.7.44 10.292-6.178 10.333-6.253a.34.34 0 0 1 .274-.124c.35 0 34.993 1.01 39.837-5.725s-1.098-33.635-1.16-33.93a.352.352 0 0 1 .687-.152c.253 1.12 6.106 27.458 1.05 34.487-4.94 6.865-37.32 6.096-40.25 6.007-.774.906-5.667 6.363-10.264 6.363M115.4 60.894a.3.3 0 0 1-.15-.041.343.343 0 0 1-.165-.467c4.981-10.296 17.77-17.223 17.901-17.291a.343.343 0 0 1 .473.144.35.35 0 0 1-.144.48c-.123.07-12.714 6.865-17.592 16.976a.36.36 0 0 1-.323.2Zm-21.146-.487a.4.4 0 0 1-.151 0c-11.952-5.492-13.4-17.56-13.414-17.676a.357.357 0 0 1 .576-.319.35.35 0 0 1 .13.237c0 .116 1.428 11.793 13.037 17.05a.357.357 0 0 1 .179.468.36.36 0 0 1-.357.24M39.796 75.968a.357.357 0 0 1 0-.686c5.173-.158 7.684-3.082 7.712-3.11a.35.35 0 0 1 .494-.048c.15.126.172.35.048.501-.11.13-2.745 3.2-8.234 3.364l-.02-.02Z"/><path fill="#231f20" d="M132.3 79.703a.35.35 0 0 1-.343-.268c0-.124-3.232-12.775-3.678-20.36a.35.35 0 0 1 .33-.37.357.357 0 0 1 .377.329c.446 7.516 3.63 20.099 3.657 20.23a.357.357 0 0 1-.254.432Zm-55.302 2.258a.35.35 0 0 1-.33-.378l1.702-26.668a.35.35 0 0 1 .377-.33.343.343 0 0 1 .33.371l-1.73 26.669a.35.35 0 0 1-.35.336Zm60.75-14.916a.34.34 0 0 1-.309-.186l-3.32-6.178a.37.37 0 0 1 0-.281.38.38 0 0 1 .184-.213l10.292-4.867a.35.35 0 0 1 .474.165.357.357 0 0 1-.165.474l-9.976 4.709 3.005 5.574 10.107-3.09a.358.358 0 1 1 .206.687l-10.395 3.213Z"/><ellipse cx="146.661" cy="140.274" fill="#fff" rx="16.941" ry="5.1"/><path fill="#d1d3d4" d="M146.66 145.718c-9.688 0-17.283-2.39-17.283-5.444 0-3.055 7.595-5.443 17.284-5.443s17.283 2.388 17.283 5.443-7.595 5.444-17.283 5.444Zm0-10.2c-9.928 0-16.597 2.457-16.597 4.756s6.67 4.757 16.598 4.757 16.597-2.457 16.597-4.757-6.67-4.757-16.597-4.757Z"/><path fill="#fff" d="m133.892 125.708-.405.075a5.03 5.03 0 0 0-3.129 1.765 4.33 4.33 0 0 0-.103 4.578c1.798 3.24 6.175 4.119 9.551 4.455.478.078.967.04 1.427-.11.465-.159.781-.593.79-1.084a1.2 1.2 0 0 0-.687-.913 3.7 3.7 0 0 0-1.118-.316c-2.1-.343-4.31-.597-6.23-1.565-1.119-.57-2.683-1.867-1.867-3.268a2.67 2.67 0 0 1 1.18-1.002c1.929-.92 3.76-.22 5.661.343.138.051.286.072.432.062a.77.77 0 0 0 .556-.858c-.062-.83-.892-1.373-1.674-1.682a8.8 8.8 0 0 0-4.384-.48"/><path fill="#231f20" d="M140.376 136.959q-.3-.002-.597-.035c-5.153-.487-8.364-1.997-9.826-4.633a4.66 4.66 0 0 1 .13-4.95 5.4 5.4 0 0 1 3.335-1.894l.426-.075a9.07 9.07 0 0 1 4.583.5c.686.255 1.805.852 1.894 1.97a1.12 1.12 0 0 1-.851 1.23 1.5 1.5 0 0 1-.576-.076l-.494-.151c-1.688-.515-3.28-.995-4.92-.213a2.3 2.3 0 0 0-1.036.872c-.18.286-.228.637-.13.96a3.69 3.69 0 0 0 1.852 1.82 18.2 18.2 0 0 0 5.359 1.414l.775.124c.426.046.841.165 1.228.35a1.373 1.373 0 0 1-.171 2.622 2.8 2.8 0 0 1-.981.165m-6.43-10.908-.39.069a4.75 4.75 0 0 0-2.923 1.627 3.99 3.99 0 0 0-.076 4.214c1.338 2.417 4.378 3.817 9.283 4.277.422.07.854.041 1.263-.082a.85.85 0 0 0 .576-.749.84.84 0 0 0-.48-.631 3.2 3.2 0 0 0-1.009-.275l-.775-.123a18.7 18.7 0 0 1-5.558-1.483 4.3 4.3 0 0 1-2.202-2.231 1.86 1.86 0 0 1 .199-1.51 2.94 2.94 0 0 1 1.331-1.14c1.88-.899 3.678-.357 5.414.172l.494.15q.14.052.288.049c.164 0 .267-.281.254-.487-.055-.77-1.036-1.222-1.455-1.373a8.4 8.4 0 0 0-4.233-.46v-.014Z"/><path fill="#fff" d="M135.477 122.234s3.17 15.83 3.43 16.784 7.754 4.874 13.723 1.023l5.221-16.18Z"/><path fill="#231f20" d="M146.79 142.052a14.9 14.9 0 0 1-5.241-1.002c-1.317-.508-2.813-1.332-2.978-1.943-.254-.954-3.3-16.152-3.43-16.804a.33.33 0 0 1 .356-.405l22.375 1.661a.336.336 0 0 1 .302.447l-5.222 16.179a.34.34 0 0 1-.144.178 10.9 10.9 0 0 1-6.017 1.689Zm-10.888-19.44c.515 2.574 3.108 15.472 3.335 16.317.096.226 1.33 1.146 3.52 1.812 2.058.625 5.996 1.332 9.605-.92l5.05-15.644Z"/><ellipse cx="146.696" cy="122.697" fill="#231f20" rx="4.86" ry="11.218" transform="rotate(-87.65 146.696 122.697)"/><path fill="#231f20" d="M147.566 127.918h-1.09c-6.485-.26-11.466-2.746-11.342-5.67s5.29-4.983 11.767-4.716c6.477.268 11.458 2.746 11.335 5.67-.055 1.442-1.373 2.746-3.644 3.597a19.9 19.9 0 0 1-7.026 1.12Zm-1.722-9.754c-5.44 0-9.935 1.785-10.031 4.119-.096 2.443 4.803 4.715 10.69 4.956 2.673.156 5.35-.22 7.877-1.106 1.99-.761 3.156-1.853 3.204-2.986.103-2.45-4.803-4.722-10.683-4.963Z"/><path fill="#fff" d="M119.847 78.254H83.543a.343.343 0 0 1-.343-.343V67.189a.35.35 0 0 1 .343-.343h36.304c.189 0 .343.153.343.343v10.743a.343.343 0 0 1-.343.322m-35.96-.686h35.617V67.532H83.886v10.036ZM.83 154.236h186.333v7.187H.83Z"/><path fill="#d1d3d4" d="M187.17 161.767H.83a.343.343 0 0 1-.343-.344v-7.187a.35.35 0 0 1 .343-.343h186.34a.35.35 0 0 1 .343.343v7.187c0 .19-.154.344-.343.344M1.173 161.08h185.654v-6.5H1.173Z"/><path fill="#fff" d="M157.845 87.116a.35.35 0 0 1-.337-.35c0-.79.501-19.399 2.553-25.844s5.9-9.13 6.058-9.233a.343.343 0 1 1 .385.57c-.042 0-3.795 2.601-5.791 8.869s-2.512 25.46-2.519 25.652a.343.343 0 0 1-.35.336Z"/></g></g></svg>