<svg xmlns="http://www.w3.org/2000/svg" width="202" height="202"><g fill="none" fill-rule="evenodd"><circle cx="101" cy="101" r="101" opacity=".203" transform="matrix(0 1 1 0 0 0)"/><g fill-rule="nonzero"><path fill="#fff" d="m64.201 90.934 4.7-4.831"/><path fill="#231f20" d="M64.2 91.204a.26.26 0 0 1-.186-.077.27.27 0 0 1 0-.381l4.67-4.83c.105-.101.27-.1.373 0 .104.102.11.267.013.375l-4.7 4.83a.27.27 0 0 1-.17.083"/><path fill="#fff" d="m68.901 90.934-4.7-4.831"/><path fill="#231f20" d="M68.9 91.204a.27.27 0 0 1-.192-.082l-4.67-4.831a.265.265 0 0 1 0-.376.27.27 0 0 1 .379 0l4.7 4.83a.277.277 0 0 1 0 .382.26.26 0 0 1-.216.077Z"/><path fill="#fff" d="m68.901 90.934 4.7-4.831"/><path fill="#231f20" d="M68.9 91.204a.26.26 0 0 1-.186-.077.277.277 0 0 1 0-.381l4.671-4.83a.26.26 0 0 1 .374 0 .26.26 0 0 1 0 .375l-4.671 4.83a.27.27 0 0 1-.187.083Z"/><path fill="#fff" d="m73.601 90.934-4.7-4.831"/><path fill="#231f20" d="M73.601 91.204a.27.27 0 0 1-.193-.082l-4.67-4.831a.27.27 0 0 1 .012-.374.27.27 0 0 1 .373-.002l4.67 4.83a.265.265 0 0 1 0 .382.25.25 0 0 1-.192.077"/><path fill="#fff" d="m73.601 90.934 4.694-4.831"/><path fill="#231f20" d="M73.601 91.204a.25.25 0 0 1-.187-.077.27.27 0 0 1 0-.381l4.7-4.83a.27.27 0 0 1 .354.02.27.27 0 0 1 .026.355l-4.7 4.83a.27.27 0 0 1-.193.083"/><path fill="#fff" d="m78.295 90.934-4.694-4.831"/><path fill="#231f20" d="M78.313 91.204a.25.25 0 0 1-.187-.082l-4.7-4.831a.27.27 0 0 1 .026-.355.27.27 0 0 1 .353-.02l4.7 4.83a.27.27 0 0 1 0 .381.26.26 0 0 1-.192.077"/><path fill="#fff" d="m78.295 90.934 4.701-4.831"/><path fill="#231f20" d="M78.313 91.204a.26.26 0 0 1-.187-.077.27.27 0 0 1 0-.381l4.671-4.83a.268.268 0 0 1 .385.375l-4.67 4.83a.27.27 0 0 1-.2.083Z"/><path fill="#fff" d="m82.996 90.934-4.701-4.831"/><path fill="#231f20" d="M82.984 91.204a.27.27 0 0 1-.193-.082l-4.67-4.831a.265.265 0 0 1 0-.376.27.27 0 0 1 .379 0l4.67 4.83a.277.277 0 0 1 0 .382.26.26 0 0 1-.186.077"/><path fill="#fff" d="m82.996 90.934 4.7-4.831"/><path fill="#231f20" d="M82.984 91.204a.26.26 0 0 1-.187-.077.277.277 0 0 1 0-.381l4.7-4.83a.268.268 0 0 1 .38.375l-4.671 4.83a.27.27 0 0 1-.222.083"/><path fill="#fff" d="m87.696 90.934-4.7-4.831"/><path fill="#231f20" d="M87.696 91.204a.27.27 0 0 1-.193-.082l-4.7-4.831a.27.27 0 0 1 .013-.374.27.27 0 0 1 .372-.002l4.671 4.83a.27.27 0 0 1 0 .382.26.26 0 0 1-.163.077"/><path fill="#fff" d="m87.696 90.934 4.694-4.831"/><path fill="#231f20" d="M87.696 91.204a.26.26 0 0 1-.187-.077.27.27 0 0 1 0-.381l4.67-4.83a.27.27 0 0 1 .355.02.27.27 0 0 1 .025.355l-4.7 4.83a.27.27 0 0 1-.163.083"/><path fill="#fff" d="m92.39 90.934-4.694-4.831"/><path fill="#231f20" d="M92.39 91.204a.26.26 0 0 1-.187-.082l-4.67-4.831a.27.27 0 0 1 .025-.355.27.27 0 0 1 .354-.02l4.7 4.83a.27.27 0 0 1 0 .381.26.26 0 0 1-.222.077"/><path fill="#fff" d="m92.39 90.934 4.7-4.831"/><path fill="#231f20" d="M92.39 91.204a.26.26 0 0 1-.187-.077.27.27 0 0 1 0-.381l4.671-4.83c.105-.101.27-.1.373 0 .103.102.11.267.013.375l-4.7 4.83a.27.27 0 0 1-.17.083"/><path fill="#fff" d="m97.09 90.934-4.7-4.831"/><path fill="#231f20" d="M97.09 91.204a.27.27 0 0 1-.192-.082l-4.671-4.831a.265.265 0 0 1 0-.376.27.27 0 0 1 .38 0l4.7 4.83a.277.277 0 0 1 0 .382.26.26 0 0 1-.217.077"/><path fill="#fff" d="m103.811 90.934 4.7-4.831"/><path fill="#231f20" d="M103.81 91.204a.26.26 0 0 1-.186-.077.27.27 0 0 1 0-.381l4.67-4.83c.105-.101.27-.1.373 0 .104.102.11.267.013.375l-4.677 4.83a.27.27 0 0 1-.192.083Z"/><path fill="#fff" d="m108.511 90.934-4.7-4.831"/><path fill="#231f20" d="M108.51 91.204a.27.27 0 0 1-.192-.082l-4.67-4.831a.265.265 0 0 1 0-.376.27.27 0 0 1 .379 0l4.7 4.83a.277.277 0 0 1 0 .382.26.26 0 0 1-.216.077Z"/><path fill="#fff" d="m108.511 90.934 4.7-4.831"/><path fill="#231f20" d="M108.51 91.204a.26.26 0 0 1-.186-.077.277.277 0 0 1 0-.381l4.7-4.83a.268.268 0 0 1 .38.375l-4.671 4.83a.27.27 0 0 1-.222.083Z"/><path fill="#fff" d="m113.211 90.934-4.7-4.831"/><path fill="#231f20" d="M113.21 91.204a.27.27 0 0 1-.192-.082l-4.7-4.831a.27.27 0 0 1 .013-.374.27.27 0 0 1 .372-.002l4.671 4.83a.27.27 0 0 1 0 .382.26.26 0 0 1-.163.077Z"/><path fill="#fff" d="m113.211 90.934 4.694-4.831"/><path fill="#231f20" d="M113.21 91.204a.26.26 0 0 1-.186-.077.277.277 0 0 1 0-.381l4.7-4.83a.27.27 0 0 1 .354.02.27.27 0 0 1 .026.355l-4.671 4.83a.25.25 0 0 1-.222.083Z"/><path fill="#fff" d="m117.905 90.934-4.694-4.831"/><path fill="#231f20" d="M117.905 91.204a.27.27 0 0 1-.187-.082l-4.7-4.831a.27.27 0 0 1 0-.376.26.26 0 0 1 .374 0l4.67 4.83a.27.27 0 0 1 0 .382.25.25 0 0 1-.157.077"/><path fill="#fff" d="m117.905 90.934 4.7-4.831"/><path fill="#231f20" d="M117.905 91.204a.25.25 0 0 1-.18-.077.265.265 0 0 1 0-.381l4.67-4.83a.26.26 0 0 1 .374 0c.1.104.1.27 0 .375l-4.7 4.83a.27.27 0 0 1-.164.083"/><path fill="#fff" d="m122.605 90.934-4.7-4.831"/><path fill="#231f20" d="M122.605 91.204a.25.25 0 0 1-.186-.082l-4.671-4.831a.26.26 0 0 1 0-.376.26.26 0 0 1 .373 0l4.7 4.83a.277.277 0 0 1 0 .382.26.26 0 0 1-.216.077"/><path fill="#fff" d="m122.605 90.934 4.701-4.831"/><path fill="#231f20" d="M122.605 91.204a.26.26 0 0 1-.186-.077.27.27 0 0 1 0-.381l4.67-4.83c.105-.101.27-.1.373 0 .104.102.11.267.013.375l-4.7 4.83a.27.27 0 0 1-.17.083"/><path fill="#fff" d="m127.306 90.934-4.701-4.831"/><path fill="#231f20" d="M127.306 91.204a.27.27 0 0 1-.193-.082l-4.671-4.831a.265.265 0 0 1 0-.376.27.27 0 0 1 .38 0l4.7 4.83a.277.277 0 0 1 0 .382.26.26 0 0 1-.216.077"/><path fill="#fff" d="m127.306 90.934 4.7-4.831"/><path fill="#231f20" d="M127.306 91.204a.26.26 0 0 1-.187-.077.277.277 0 0 1 0-.381l4.67-4.83a.26.26 0 0 1 .374 0 .26.26 0 0 1 0 .375l-4.67 4.83a.27.27 0 0 1-.187.083"/><path fill="#fff" d="m132.006 90.934-4.7-4.831"/><path fill="#231f20" d="M132.029 91.204a.27.27 0 0 1-.193-.082l-4.67-4.831a.27.27 0 0 1 .012-.374.27.27 0 0 1 .373-.002l4.67 4.83a.265.265 0 0 1 0 .382.25.25 0 0 1-.192.077"/><path fill="#fff" d="m132.006 90.934 4.694-4.831"/><path fill="#231f20" d="M132.029 91.204a.26.26 0 0 1-.187-.077.27.27 0 0 1 0-.381l4.7-4.83a.26.26 0 0 1 .374 0c.1.104.1.27 0 .375l-4.67 4.83a.27.27 0 0 1-.217.083"/><path fill="#fff" d="m136.7 90.934-4.694-4.831"/><path fill="#231f20" d="M136.7 91.204a.25.25 0 0 1-.187-.082l-4.7-4.831a.27.27 0 0 1 .026-.355.27.27 0 0 1 .354-.02l4.67 4.83a.277.277 0 0 1 0 .381.26.26 0 0 1-.163.077"/><path fill="#231f20" d="M142.112 86.185H58.888a.26.26 0 0 1-.27-.264.27.27 0 0 1 .27-.27h83.224a.27.27 0 0 1 .19.459.26.26 0 0 1-.19.075"/><path fill="#fff" d="M62.274 132.12h76.446v2.671H62.274Z"/><path fill="#231f20" d="M138.726 135.043H62.274a.263.263 0 0 1-.263-.264v-2.67c0-.146.118-.264.263-.264h76.452c.145 0 .263.118.263.264v2.676a.263.263 0 0 1-.263.258m-76.178-.516h75.904v-2.137H62.548Z"/><path fill="#fff" d="M138.726 134.797v15.848h-9.155s-6.253-14.205-29.071-14.205-29.07 14.205-29.07 14.205h-9.156v-15.848Z"/><path fill="#231f20" d="M138.726 150.891h-9.155a.28.28 0 0 1-.245-.158c-.059-.141-6.464-14.052-28.826-14.052s-28.767 13.911-28.826 14.052a.28.28 0 0 1-.245.158h-9.155a.27.27 0 0 1-.269-.27v-15.848a.27.27 0 0 1 .269-.27h76.452a.27.27 0 0 1 .269.27v15.848c0 .15-.12.27-.269.27m-8.986-.534h8.712v-15.314H62.548v15.32h8.718c.794-1.579 7.823-14.21 29.24-14.21s28.44 12.649 29.234 14.228ZM59.349 90.934h82.302v2.448H59.349Z"/><path fill="#231f20" d="M141.651 93.675H59.325a.293.293 0 0 1-.292-.294v-2.447c0-.162.131-.294.292-.294h82.326c.161 0 .292.132.292.294v2.436a.296.296 0 0 1-.292.305m-82.01-.587h81.73v-1.86H59.629Z"/><path fill="#e7816b" d="m97.19 84.935 3.31-2.295 3.31 2.295v5.999h-6.62Z"/><path fill="#231f20" d="M103.81 91.204h-6.62a.27.27 0 0 1-.27-.27v-5.999a.27.27 0 0 1 .118-.223l3.31-2.295a.28.28 0 0 1 .304 0l3.31 2.295a.27.27 0 0 1 .117.223v5.999a.27.27 0 0 1-.268.27Zm-6.358-.534h6.096v-5.594l-3.048-2.113-3.048 2.113Z"/><path fill="#231f20" d="M97.19 89.63a.26.26 0 0 1-.27-.263v-6.034a.27.27 0 0 1 .121-.267.27.27 0 0 1 .291 0 .27.27 0 0 1 .12.267v6.034a.263.263 0 0 1-.263.264Zm6.62 0a.263.263 0 0 1-.262-.263v-6.034a.27.27 0 0 1 .12-.267.27.27 0 0 1 .291 0 .27.27 0 0 1 .12.267v6.034a.265.265 0 0 1-.268.264Zm-3.31-6.72a.275.275 0 0 1-.269-.27v-1.667a.27.27 0 1 1 .537 0v1.667a.275.275 0 0 1-.268.27m-90.179 49.199V116.43c18.684-3.128 37.368-26.037 37.368-26.037l-1.028 4.513s-19.028 21.618-36.352 23.631"/><path fill="#231f20" d="M10.321 132.414a.293.293 0 0 1-.292-.294v-15.683a.3.3 0 0 1 .245-.294c18.363-3.07 37.012-25.702 37.199-25.925a.3.3 0 0 1 .356-.083.31.31 0 0 1 .152.33l-1.022 4.513a.25.25 0 0 1-.07.129c-.187.217-19.104 21.512-36.276 23.695v13.307a.294.294 0 0 1-.292.305m.292-15.736v1.526c16.506-2.149 34.711-22.228 35.791-23.437l.748-3.276c-3.72 4.285-20.173 22.299-36.539 25.187"/><path fill="#231f20" d="M15.973 132.39a.26.26 0 0 1-.263-.27v-14.873a.269.269 0 0 1 .532 0v14.862a.265.265 0 0 1-.269.282Zm6.043 0a.26.26 0 0 1-.269-.27v-17.438a.269.269 0 0 1 .532 0v17.427a.265.265 0 0 1-.263.282Zm6.312 0a.27.27 0 0 1-.269-.27v-21.142a.27.27 0 1 1 .537 0v21.13a.27.27 0 0 1-.268.282m6.312 0a.26.26 0 0 1-.263-.27v-25.837a.269.269 0 0 1 .53 0v25.826a.265.265 0 0 1-.268.282Zm20.137-79.104a.27.27 0 0 1-.269-.264v-5.33a.27.27 0 1 1 .537 0v5.33a.27.27 0 0 1-.268.264m-.747 1.144h1.494l6.481 26.79H47.55Z"/><path fill="#231f20" d="M62.005 81.507h-14.45a.29.29 0 0 1-.286-.358l6.475-26.783a.3.3 0 0 1 .286-.229h1.512c.136 0 .253.096.28.23l6.475 26.782a.29.29 0 0 1-.292.358m-14.083-.587h13.71l-6.335-26.196h-1.04Z"/><path fill="#231f20" d="M54.036 52.423h1.489v2.007h-1.489Z"/><path fill="#231f20" d="M55.542 54.724h-1.483a.293.293 0 0 1-.292-.293v-2.008c0-.162.13-.293.292-.293h1.483c.161 0 .292.131.292.293v2.008c0 .162-.13.293-.292.293m-1.168-.587h.9v-1.42h-.9Z"/><path fill="#e7816b" d="M57.936 80.34v-6.346l-3.159-5.341-3.159 5.341v6.345h-3.036v50.778h12.39V80.339Z"/><path fill="#231f20" d="M60.972 131.387H48.588a.27.27 0 0 1-.269-.27V80.339a.265.265 0 0 1 .269-.264h2.768V74q0-.072.035-.135l3.158-5.341a.274.274 0 0 1 .456 0l3.159 5.341a.3.3 0 0 1 .035.135v6.08h2.773c.145 0 .263.12.263.265v50.778a.27.27 0 0 1-.263.264m-12.121-.54h11.852V80.609h-2.767a.275.275 0 0 1-.269-.27v-6.274l-2.92-4.89-2.918 4.89v6.274c0 .15-.12.27-.27.27h-2.767Z"/><path fill="#231f20" d="M60.972 85.258H48.588a.27.27 0 0 1-.265-.12.27.27 0 0 1 0-.294.27.27 0 0 1 .265-.12h12.384a.27.27 0 0 1 0 .534m-8.384 9.679h-1.956v-6.363c0-.546.98-1.426.98-1.426s.976.88.976 1.426Zm3.17 0H53.79v-6.363c0-.546.981-1.426.981-1.426s.981.88.981 1.426Zm3.165 0h-1.956v-6.363c0-.546.975-1.426.975-1.426s.98.88.98 1.426v6.363Zm-6.335 11.933h-1.956v-6.392c0-.54.98-1.427.98-1.427s.976.887.976 1.427Zm3.17 0H53.79v-6.392c0-.54.981-1.427.981-1.427s.981.887.981 1.427Zm3.165 0h-1.956v-6.392c0-.54.975-1.427.975-1.427s.98.887.98 1.427v6.392Zm-6.335 11.885h-1.956v-6.368c0-.546.98-1.426.98-1.426s.976.88.976 1.426Zm3.17 0H53.79v-6.368c0-.546.981-1.426.981-1.426s.981.88.981 1.426Zm3.165 0h-1.956v-6.368c0-.546.975-1.426.975-1.426s.98.88.98 1.426v6.368Zm1.605 3.516H49.026a.27.27 0 0 1-.269-.264.275.275 0 0 1 .269-.27h11.502a.275.275 0 0 1 .269.27.27.27 0 0 1-.269.264M46.527 60.612l2.954 11.31h-5.908Z"/><path fill="#231f20" d="M49.481 72.24h-5.908a.3.3 0 0 1-.234-.118.3.3 0 0 1-.047-.253l2.92-11.31a.304.304 0 0 1 .584 0l2.954 11.31a.28.28 0 0 1-.053.253.3.3 0 0 1-.216.117Zm-5.529-.588h5.167l-2.575-9.867Z"/><path fill="#e7816b" d="m44.635 71.922.123 18.853 1.127 3.017v37.325h3.626V93.41l-.882-1.978v-19.51Z"/><path fill="#231f20" d="M49.51 131.387h-3.625a.275.275 0 0 1-.269-.27V93.839l-1.103-2.97a.3.3 0 0 1 0-.094l-.129-18.853c0-.073.03-.142.082-.194a.27.27 0 0 1 .187-.076h3.993a.27.27 0 0 1 .269.27v19.452l.858 1.931a.3.3 0 0 1 0 .106v37.706a.275.275 0 0 1-.262.27Zm-3.357-.54h3.089V93.469l-.858-1.925a.4.4 0 0 1 0-.111V72.186h-3.457l.123 18.536 1.11 2.97a.3.3 0 0 1 0 .094l-.007 37.06Z"/><path fill="#231f20" d="M48.629 84.442h-3.912a.27.27 0 0 1-.265-.12.27.27 0 0 1 0-.293.27.27 0 0 1 .265-.121h3.912a.27.27 0 0 1 .265.12.27.27 0 0 1 0 .293.27.27 0 0 1-.265.121m.881 9.614h-3.625a.27.27 0 0 1-.265-.12.27.27 0 0 1 0-.293.27.27 0 0 1 .265-.12h3.626a.27.27 0 0 1 .265.12.27.27 0 0 1 0 .293.27.27 0 0 1-.265.12Zm13.517-33.444-2.954 11.31h5.909Z"/><path fill="#231f20" d="M65.982 72.24h-5.91a.3.3 0 0 1-.227-.118.28.28 0 0 1-.052-.253l2.954-11.31a.304.304 0 0 1 .584 0l2.954 11.31a.3.3 0 0 1-.303.37Zm-5.53-.588h5.15l-2.575-9.867Z"/><path fill="#e7816b" d="m64.919 71.922-.123 18.853-1.127 3.017v37.325h-3.625V93.41l.881-1.978v-19.51Z"/><path fill="#231f20" d="M63.67 131.387h-3.626a.275.275 0 0 1-.269-.27V93.41a.3.3 0 0 1 0-.106l.858-1.931V71.922c0-.149.12-.27.269-.27h3.994a.257.257 0 0 1 .268.27l-.128 18.853a.5.5 0 0 1 0 .094l-1.11 2.97v37.278a.275.275 0 0 1-.257.27Zm-3.358-.54h3.089v-37.06a.3.3 0 0 1 0-.095l1.11-2.97.122-18.536h-3.457v19.247a.3.3 0 0 1 0 .111l-.858 1.925Z"/><path fill="#fff" d="M64.837 84.178h-3.912"/><path fill="#231f20" d="M64.837 84.442h-3.912a.27.27 0 0 1-.265-.12.27.27 0 0 1 0-.293.27.27 0 0 1 .265-.121h3.912a.27.27 0 0 1 .265.12.27.27 0 0 1 0 .293.27.27 0 0 1-.265.121"/><path fill="#fff" d="M63.669 93.792h-3.625"/><path fill="#231f20" d="M63.67 94.056h-3.626a.27.27 0 0 1-.266-.12.27.27 0 0 1 0-.293.27.27 0 0 1 .266-.12h3.625a.27.27 0 0 1 .266.12.27.27 0 0 1 0 .293.27.27 0 0 1-.266.12ZM46.527 61.345a.27.27 0 0 1-.269-.27V58.44a.27.27 0 1 1 .537 0v2.647a.27.27 0 0 1-.268.258m16.5 0a.26.26 0 0 1-.263-.27V58.44a.27.27 0 0 1 .12-.267.27.27 0 0 1 .292 0 .27.27 0 0 1 .12.267v2.647a.265.265 0 0 1-.269.258"/><path fill="#e7816b" d="M41.827 131.117h25.877v19.534H41.827Z"/><path fill="#231f20" d="M67.71 150.891H41.827a.263.263 0 0 1-.263-.264v-19.51a.27.27 0 0 1 .263-.27H67.71a.275.275 0 0 1 .268.27v19.534a.27.27 0 0 1-.268.24m-25.597-.51h25.346v-18.994H42.113Zm13.645-69.167H53.79V74.85c0-.546.981-1.426.981-1.426s.981.88.981 1.426l.006 6.363Z"/><path fill="#231f20" d="M55.758 81.507H53.79a.293.293 0 0 1-.292-.293V74.85c0-.646.9-1.485 1.08-1.643.11-.1.277-.1.386 0 .18.158 1.08.997 1.08 1.643v6.363c0 .16-.127.29-.286.293Zm-1.67-.587h1.378v-6.069a2.3 2.3 0 0 0-.689-1.021 2.3 2.3 0 0 0-.689 1.021Z"/><path fill="#fff" d="M10.321 132.12h31.506v2.671H10.321Z"/><path fill="#231f20" d="M41.827 135.043h-31.53a.263.263 0 0 1-.262-.264v-2.67a.265.265 0 0 1 .263-.264h31.529a.26.26 0 0 1 .268.264v2.676a.265.265 0 0 1-.268.258m-31.243-.516h30.98v-2.137h-30.98Z"/><path fill="#fff" d="M10.321 134.797h31.506v15.854H10.321Z"/><path fill="#231f20" d="M41.827 150.891h-31.53a.264.264 0 0 1-.262-.264V134.78a.265.265 0 0 1 .263-.27h31.529a.26.26 0 0 1 .268.27v15.848a.265.265 0 0 1-.268.264Zm-31.243-.51h30.98v-15.338h-30.98Zm30.361-17.991a.26.26 0 0 1-.268-.27v-31.396a.27.27 0 0 1 .12-.266.27.27 0 0 1 .29 0 .27.27 0 0 1 .12.266v31.385a.265.265 0 0 1-.262.282Zm149.734-.281V116.43c-18.684-3.128-37.368-26.037-37.368-26.037l1.028 4.513s19.028 21.618 36.352 23.631"/><path fill="#231f20" d="M190.679 132.414a.293.293 0 0 1-.292-.294v-13.323c-17.172-2.184-36.09-23.479-36.276-23.696a.25.25 0 0 1-.07-.129l-.993-4.537a.31.31 0 0 1 .152-.329.3.3 0 0 1 .356.082c.187.223 18.836 22.856 37.199 25.926a.3.3 0 0 1 .245.294v15.7a.29.29 0 0 1-.321.305Zm-36.083-37.647c1.08 1.209 19.267 21.288 35.79 23.437v-1.526c-16.347-2.888-32.818-20.902-36.538-25.187Z"/><path fill="#231f20" d="M185.027 132.39a.26.26 0 0 1-.269-.27v-14.873a.269.269 0 0 1 .532 0v14.862a.265.265 0 0 1-.263.282Zm-6.043 0a.26.26 0 0 1-.245-.281v-17.427a.269.269 0 0 1 .531 0v17.427a.265.265 0 0 1-.286.281m-6.312 0a.27.27 0 0 1-.268-.27v-21.142c0-.149.12-.27.268-.27a.27.27 0 0 1 .269.27v21.13a.27.27 0 0 1-.269.282m-6.312 0a.26.26 0 0 1-.268-.27v-25.837a.269.269 0 0 1 .531 0v25.826a.265.265 0 0 1-.262.282Z"/><path fill="#fff" d="M146.223 53.022v-5.329"/><path fill="#231f20" d="M146.223 53.286a.27.27 0 0 1-.269-.264v-5.33a.27.27 0 1 1 .537 0v5.33a.27.27 0 0 1-.268.264m.747 1.144h-1.5l-6.475 26.79h14.456Z"/><path fill="#231f20" d="M153.445 81.507h-14.45a.29.29 0 0 1-.28-.358l6.474-26.783a.29.29 0 0 1 .28-.229h1.501a.3.3 0 0 1 .286.23l6.476 26.782a.29.29 0 0 1-.287.358m-14.077-.587h13.71l-6.335-26.196h-1.04Z"/><path fill="#231f20" d="M146.964 54.437h-1.489V52.43h1.489Z"/><path fill="#231f20" d="M146.964 54.724h-1.506a.293.293 0 0 1-.292-.293v-2.008c0-.162.13-.293.292-.293h1.483c.161 0 .292.131.292.293v2.008a.293.293 0 0 1-.269.293m-1.167-.587h.899v-1.42h-.9v1.42Z"/><path fill="#e7816b" d="M143.064 80.34v-6.346l3.159-5.341 3.159 5.341v6.345h3.036v50.778h-12.39V80.339Z"/><path fill="#231f20" d="M152.412 131.387h-12.384a.27.27 0 0 1-.263-.27V80.339c0-.146.118-.264.263-.264h2.773V74q0-.072.035-.135l3.16-5.341a.274.274 0 0 1 .455 0l3.158 5.341a.3.3 0 0 1 .035.135v6.08h2.768a.26.26 0 0 1 .269.265v50.778a.27.27 0 0 1-.269.264m-12.115-.54h11.852V80.609h-2.767a.27.27 0 0 1-.269-.27v-6.274l-2.89-4.89-2.89 4.89v6.274a.275.275 0 0 1-.269.27h-2.767Z"/><path fill="#fff" d="M152.412 84.994h-12.384"/><path fill="#231f20" d="M152.412 85.258h-12.384a.27.27 0 0 1 0-.534h12.384a.27.27 0 0 1 .265.12.27.27 0 0 1 0 .293.27.27 0 0 1-.265.12Zm-4 9.679h1.956v-6.363c0-.546-.98-1.426-.98-1.426s-.976.88-.976 1.426Zm-3.17 0h1.968v-6.363c0-.546-.981-1.426-.981-1.426s-.981.88-.981 1.426Zm-3.165 0h1.956v-6.363c0-.546-.975-1.426-.975-1.426s-.98.88-.98 1.426v6.363Zm6.335 11.933h1.956v-6.392c0-.54-.98-1.427-.98-1.427s-.976.887-.976 1.427Zm-3.17 0h1.968v-6.392c0-.54-.981-1.427-.981-1.427s-.981.887-.981 1.427Zm-3.165 0h1.956v-6.392c0-.54-.975-1.427-.975-1.427s-.98.887-.98 1.427v6.392Zm6.335 11.885h1.956v-6.368c0-.546-.98-1.426-.98-1.426s-.976.88-.976 1.426Zm-3.17 0h1.968v-6.368c0-.546-.981-1.426-.981-1.426s-.981.88-.981 1.426Zm-3.165 0h1.956v-6.368c0-.546-.975-1.426-.975-1.426s-.98.88-.98 1.426v6.368Z"/><path fill="#fff" d="M151.489 97.232h-10.533"/><path fill="#231f20" d="M151.49 97.478h-10.51a.275.275 0 0 1-.269-.27.27.27 0 0 1 .269-.264h10.51a.27.27 0 0 1 .268.264.275.275 0 0 1-.269.27Z"/><path fill="#fff" d="M151.489 109.341h-10.533"/><path fill="#231f20" d="M151.49 109.61h-10.51a.27.27 0 0 1-.265-.12.27.27 0 0 1 0-.293.27.27 0 0 1 .265-.12h10.51a.27.27 0 0 1 .265.12.27.27 0 0 1 0 .293.27.27 0 0 1-.266.12Z"/><path fill="#fff" d="M151.974 122.007h-11.502"/><path fill="#231f20" d="M151.974 122.271h-11.502a.27.27 0 0 1-.269-.264.275.275 0 0 1 .269-.27h11.502a.275.275 0 0 1 .269.27.27.27 0 0 1-.269.264m2.499-61.659-2.954 11.31h5.908Z"/><path fill="#231f20" d="M157.427 72.24h-5.908a.3.3 0 0 1-.228-.118.28.28 0 0 1-.053-.253l2.978-11.334a.304.304 0 0 1 .584 0l2.92 11.31a.3.3 0 0 1-.047.253.3.3 0 0 1-.246.141Zm-5.546-.588h5.15l-2.575-9.867Z"/><path fill="#e7816b" d="m156.365 71.922-.123 18.853-1.127 3.017v37.325h-3.626V93.41l.882-1.978v-19.51Z"/><path fill="#231f20" d="M155.115 131.387h-3.626a.275.275 0 0 1-.268-.27V93.41a.3.3 0 0 1 0-.106l.858-1.931V71.922c0-.149.12-.27.269-.27h3.993a.27.27 0 0 1 .269.27l-.128 18.853a.3.3 0 0 1 0 .094l-1.098 2.97v37.278a.275.275 0 0 1-.269.27m-3.357-.54h3.089v-37.06a.3.3 0 0 1 0-.095l1.11-2.97.122-18.536h-3.44v19.247a.4.4 0 0 1 0 .111l-.858 1.925Z"/><path fill="#fff" d="M156.283 84.178h-3.912"/><path fill="#231f20" d="M156.283 84.442h-3.912a.27.27 0 0 1-.265-.12.27.27 0 0 1 0-.293.27.27 0 0 1 .265-.121h3.912a.27.27 0 0 1 .265.12.27.27 0 0 1 0 .293.27.27 0 0 1-.265.121"/><path fill="#fff" d="M155.115 93.792h-3.626"/><path fill="#231f20" d="M155.115 94.056h-3.626a.27.27 0 0 1-.265-.12.27.27 0 0 1 0-.293.27.27 0 0 1 .265-.12h3.626a.27.27 0 0 1 .265.12.27.27 0 0 1 0 .293.27.27 0 0 1-.265.12m-17.142-33.444 2.954 11.31h-5.909Z"/><path fill="#231f20" d="M140.927 72.24h-5.909a.3.3 0 0 1-.233-.118.3.3 0 0 1-.053-.253l2.955-11.31a.304.304 0 0 1 .584 0l2.954 11.31a.28.28 0 0 1-.053.253.29.29 0 0 1-.245.117Zm-5.529-.588h5.15l-2.575-9.867Z"/><path fill="#e7816b" d="m136.081 71.922.123 18.853 1.127 3.017v37.325h3.625V93.41l-.881-1.978v-19.51Z"/><path fill="#231f20" d="M140.956 131.387h-3.625a.275.275 0 0 1-.269-.27V93.839l-1.11-2.97a.5.5 0 0 1 0-.094l-.128-18.853a.26.26 0 0 1 .269-.27h3.993a.27.27 0 0 1 .269.27v19.452l.858 1.931a.3.3 0 0 1 0 .106v37.706a.275.275 0 0 1-.257.27m-3.357-.54h3.089V93.469l-.858-1.925a.3.3 0 0 1 0-.111V72.186h-3.48l.122 18.536 1.11 2.97a.3.3 0 0 1 0 .094l.017 37.06Z"/><path fill="#fff" d="M136.163 84.178h3.912"/><path fill="#231f20" d="M140.075 84.442h-3.912a.27.27 0 0 1-.265-.12.27.27 0 0 1 0-.293.27.27 0 0 1 .265-.121h3.912a.27.27 0 0 1 .265.12.27.27 0 0 1 0 .293.27.27 0 0 1-.265.121m.881 9.614h-3.625a.27.27 0 0 1-.266-.12.27.27 0 0 1 0-.293.27.27 0 0 1 .266-.12h3.625a.27.27 0 0 1 .266.12.27.27 0 0 1 0 .293.27.27 0 0 1-.266.12"/><path fill="#fff" d="M154.473 61.075V58.44"/><path fill="#231f20" d="M154.473 61.345a.27.27 0 0 1-.257-.258V58.44a.27.27 0 1 1 .537 0v2.647a.27.27 0 0 1-.28.258"/><path fill="#fff" d="M137.973 61.075V58.44"/><path fill="#231f20" d="M137.973 61.345a.26.26 0 0 1-.269-.27V58.44a.27.27 0 0 1 .12-.267.27.27 0 0 1 .291 0 .27.27 0 0 1 .12.267v2.647a.263.263 0 0 1-.262.258"/><path fill="#e7816b" d="M133.29 131.117h25.877v19.534H133.29Z"/><path fill="#231f20" d="M159.173 150.891H133.29a.27.27 0 0 1-.268-.264v-19.51a.275.275 0 0 1 .268-.27h25.883a.27.27 0 0 1 .263.27v19.534a.263.263 0 0 1-.263.24m-25.614-.534h25.328v-18.97H133.56v18.97Zm11.683-69.143h1.968V74.85c0-.546-.981-1.426-.981-1.426s-.981.88-.981 1.426l-.006 6.363Z"/><path fill="#fff" d="M190.673 134.797h-31.506v-2.67h31.506Z"/><path fill="#231f20" d="M190.679 135.043h-31.53a.26.26 0 0 1-.268-.264v-2.67a.265.265 0 0 1 .269-.264h31.529c.145 0 .263.118.263.264v2.676a.263.263 0 0 1-.263.258m-31.243-.534h30.98v-2.136h-30.98Z"/><path fill="#fff" d="M190.673 150.645h-31.506V134.79h31.506Z"/><path fill="#231f20" d="M190.679 150.891h-31.53a.26.26 0 0 1-.268-.264V134.78a.265.265 0 0 1 .269-.27h31.529a.26.26 0 0 1 .263.27v15.848a.264.264 0 0 1-.263.264Zm-31.243-.534h30.98v-15.314h-30.98Zm.619-17.967a.26.26 0 0 1-.263-.27v-31.396a.27.27 0 0 1 .12-.266.27.27 0 0 1 .291 0 .27.27 0 0 1 .12.266v31.385a.265.265 0 0 1-.268.282Z"/><path fill="#d1d3d4" d="M74.284 151.478a.3.3 0 0 1-.292-.287.295.295 0 0 1 .286-.3 10.6 10.6 0 0 0 7.894-3.926.3.3 0 0 1 .21-.112.28.28 0 0 1 .222.082 9.84 9.84 0 0 0 5.495 2.888 6.2 6.2 0 0 0 5.581-2.048.29.29 0 0 1 .397-.053 7.74 7.74 0 0 0 10.428-1.761.303.303 0 0 1 .473 0c2.435 3.44 7.783 4.367 11.222 1.949a.28.28 0 0 1 .386.052 4.78 4.78 0 0 0 3.55 1.62 4.7 4.7 0 0 0 3.631-1.414.3.3 0 0 1 .251-.088c.09.013.17.067.216.147a2.62 2.62 0 0 0 3.678.775.297.297 0 0 1 .41.058.295.295 0 0 1-.065.41 3.04 3.04 0 0 1-2.464.494 3.14 3.14 0 0 1-1.856-1.139 5.63 5.63 0 0 1-7.59-.287c-3.58 2.347-8.922 1.438-11.573-1.92a8.354 8.354 0 0 1-10.79 1.72 6.83 6.83 0 0 1-5.926 2.054 10.28 10.28 0 0 1-5.605-2.829 11.17 11.17 0 0 1-8.157 3.915Zm41.466 2.589a4.2 4.2 0 0 1-3.053-1.174 5.817 5.817 0 0 1-7.882-.992 10.73 10.73 0 0 1-7.491 1.72.298.298 0 0 1-.187-.478.3.3 0 0 1 .274-.11c2.568.374 5.18-.256 7.299-1.76a.3.3 0 0 1 .222-.053c.076.016.145.06.192.123a5.235 5.235 0 0 0 7.415.933.28.28 0 0 1 .216-.07.3.3 0 0 1 .199.106 3.74 3.74 0 0 0 3.246 1.174 11.7 11.7 0 0 0 3.58-1.174.29.29 0 0 1 .385.152.295.295 0 0 1-.146.388 12.1 12.1 0 0 1-3.766 1.174 5 5 0 0 1-.502.04Zm-34.173.533a.29.29 0 0 1-.286-.252.3.3 0 0 1 .245-.334 5.32 5.32 0 0 0 3.124-1.679.3.3 0 0 1 .204-.094.27.27 0 0 1 .21.082c.599.628 1.4 1.02 2.26 1.11a2.37 2.37 0 0 0 2.148-.963.29.29 0 0 1 .24-.129.36.36 0 0 1 .245.123 2.14 2.14 0 0 0 2.51.734.29.29 0 0 1 .298.029.294.294 0 0 1-.07.511 2.76 2.76 0 0 1-2.972-.64 3.06 3.06 0 0 1-2.44.922 4.14 4.14 0 0 1-2.406-1.074 5.9 5.9 0 0 1-3.264 1.649l-.046.006Z"/></g></g></svg>